<svg xmlns="http://www.w3.org/2000/svg" viewBox="0 0 500 500"><g id="freepik--background-simple--inject-89"><path d="M432.57,117.34l-2.4-3.9c-19.4-31.58-54.09-51-91.13-49.78a101,101,0,0,0-17.5,2.12c-34.6,7.31-64.7,33.15-77.18,66.23C237,151.47,235,173.87,221,189.32c-18.12,20.1-48.89,20.73-75.94,19.9s-57.84-.12-75.88,20.06c-11.29,12.64-14.88,30.61-14,47.53,2.41,44.82,34,84.88,74.25,104.8s87.56,21.7,131.57,12.94c61.66-12.27,120.29-46,155.54-98S460.77,173.53,432.57,117.34Z" style="fill:#f5f5f5"></path><circle cx="157.17" cy="99.61" r="40.46" style="fill:#f5f5f5"></circle></g><g id="freepik--Characters--inject-89"><path d="M365.5,456.82c-12.82-135.54-18.93-152.89-18.9-152.75h0L237,300.92s-37,138.33-38.9,149.07c-4.25,24.59,49.43,30.65,56.43,14.48,12.13-28.05,29.56-95.33,29.56-95.33s23.95,86.08,27.3,96.24c2,6.13,24.43,8.88,35.83,6.59S366.24,464.63,365.5,456.82Z" style="fill:#263238"></path><path d="M248.53,150.21l34.08-1.62,41.62,5.48,34.52,22.25L345.18,292.67l4.3,25.66H232.33S237,207.15,236,206.69,248.53,150.21,248.53,150.21Z" style="fill:#DC9B9B"></path><path d="M322.51,197.2c.11.49.21,1,.29,1.46.13.78.21,1.55.37,2.33-.65.81-1.26,1.66-2.35,1.07s-.79-1.36-.46-2.11a3.5,3.5,0,0,1,.46-.67Z" style="fill:#fafafa"></path><path d="M325.82,193c.11.49.22,1,.32,1.49.14.72.41,1.49.53,2.24-.73.92-1.49,1.84-2.2,2.7q-.06-.5-.15-1c-.17-.93-.4-1.84-.57-2.76l.63-.8Z" style="fill:#fafafa"></path><path d="M328.09,189.71a2.85,2.85,0,0,1,.9.7,4.39,4.39,0,0,1,.89,1.92c-.58.91-1.27,1.87-2,2.84-.05-.21-.11-.43-.15-.64-.22-1-.44-2.06-.67-3.1a7.09,7.09,0,0,0,.87-1.24Z" style="fill:#fafafa"></path><path d="M328.35,186.7a3.92,3.92,0,0,1,1.73.46,3.19,3.19,0,0,1,.75,3.4,4.86,4.86,0,0,0-.77-1.12,5.1,5.1,0,0,0-2.57-1.45,3.73,3.73,0,0,0-1.27-.76A3.74,3.74,0,0,1,328.35,186.7Z" style="fill:#fafafa"></path><path d="M323.46,184.76a6.06,6.06,0,0,1,5.14.86,4.59,4.59,0,0,0-.83,0c-1.18.1-2.56.49-3,1.51-.3.12-.49.53-.87.58a1.58,1.58,0,0,1-1.73-1.28A1.67,1.67,0,0,1,323.46,184.76Z" style="fill:#fafafa"></path><path d="M341.94,223.91c.1.48.21,1,.29,1.45.13.79.21,1.56.37,2.33-.65.81-1.26,1.66-2.35,1.08s-.79-1.37-.46-2.11a3.22,3.22,0,0,1,.46-.67C340.8,225.3,341.37,224.61,341.94,223.91Z" style="fill:#fafafa"></path><path d="M345.25,219.67c.11.5.21,1,.32,1.5.14.72.41,1.49.53,2.24-.74.92-1.49,1.83-2.2,2.7,0-.34-.09-.67-.15-1-.17-.92-.4-1.84-.57-2.76l.63-.79C344.29,220.94,344.77,220.3,345.25,219.67Z" style="fill:#fafafa"></path><path d="M347.52,216.42a2.68,2.68,0,0,1,.9.69,4.48,4.48,0,0,1,.89,1.93c-.58.9-1.27,1.86-2,2.83-.05-.21-.11-.42-.15-.63-.22-1-.44-2.07-.67-3.1a7.34,7.34,0,0,0,.87-1.25C347.41,216.74,347.46,216.58,347.52,216.42Z" style="fill:#fafafa"></path><path d="M347.78,213.4a3.92,3.92,0,0,1,1.73.46,3.19,3.19,0,0,1,.75,3.4,5.09,5.09,0,0,0-.77-1.12,5.17,5.17,0,0,0-2.57-1.45,4.08,4.08,0,0,0-1.27-.76A3.8,3.8,0,0,1,347.78,213.4Z" style="fill:#fafafa"></path><path d="M342.89,211.47a6,6,0,0,1,5.14.86,4.58,4.58,0,0,0-.83,0c-1.18.1-2.56.49-3,1.52-.3.12-.49.53-.87.57a1.57,1.57,0,0,1-1.73-1.27A1.66,1.66,0,0,1,342.89,211.47Z" style="fill:#fafafa"></path><path d="M253.62,224.34c.11.49.22,1,.3,1.46.12.78.21,1.56.37,2.33-.65.81-1.27,1.66-2.35,1.08s-.79-1.37-.46-2.12a3.1,3.1,0,0,1,.46-.67Z" style="fill:#fafafa"></path><path d="M256.94,220.11c.11.5.21,1,.31,1.49.15.72.42,1.5.54,2.25-.74.92-1.49,1.83-2.2,2.7-.05-.34-.09-.67-.15-1-.17-.92-.41-1.84-.57-2.76.21-.26.42-.53.62-.8C256,221.37,256.46,220.74,256.94,220.11Z" style="fill:#fafafa"></path><path d="M259.2,216.86a2.62,2.62,0,0,1,.91.69,4.56,4.56,0,0,1,.89,1.92c-.58.91-1.27,1.87-2,2.84q-.09-.31-.15-.63c-.23-1-.44-2.07-.67-3.1a7.34,7.34,0,0,0,.87-1.25C259.09,217.17,259.15,217,259.2,216.86Z" style="fill:#fafafa"></path><path d="M259.47,213.84a4,4,0,0,1,1.73.46,3.17,3.17,0,0,1,.74,3.4,4.72,4.72,0,0,0-.76-1.12,5.09,5.09,0,0,0-2.58-1.45,4,4,0,0,0-1.26-.76A3.8,3.8,0,0,1,259.47,213.84Z" style="fill:#fafafa"></path><path d="M254.58,211.91a6,6,0,0,1,5.14.86,4.58,4.58,0,0,0-.83,0c-1.18.1-2.56.49-3,1.52-.3.12-.49.52-.87.57a1.58,1.58,0,0,1-1.73-1.28A1.65,1.65,0,0,1,254.58,211.91Z" style="fill:#fafafa"></path><path d="M338.2,168.28c.11.48.22,1,.29,1.46.13.78.22,1.55.38,2.32-.65.82-1.27,1.66-2.35,1.08s-.79-1.36-.46-2.11a2.59,2.59,0,0,1,.46-.67Z" style="fill:#fafafa"></path><path d="M341.52,164c.11.5.21,1,.31,1.5.15.72.42,1.49.54,2.24-.74.92-1.49,1.83-2.21,2.7,0-.33-.08-.66-.14-1-.17-.93-.41-1.84-.57-2.76l.62-.8C340.56,165.31,341,164.67,341.52,164Z" style="fill:#fafafa"></path><path d="M293.35,206c.47.14.95.28,1.42.44.74.26,1.46.56,2.22.79.4,1,.85,1.91-.18,2.58s-1.58,0-2.08-.61a3.22,3.22,0,0,1-.37-.72Z" style="fill:#fafafa"></path><path d="M291.22,201.06l1.46.44c.71.22,1.51.35,2.23.61.45,1.08.89,2.18,1.31,3.22l-.94-.35c-.89-.29-1.81-.52-2.7-.82-.13-.31-.26-.62-.4-.93C291.87,202.51,291.54,201.78,291.22,201.06Z" style="fill:#fafafa"></path><path d="M289.45,197.51a2.7,2.7,0,0,1,1.05-.46,4.42,4.42,0,0,1,2.11.14c.52.94,1,2,1.53,3.13-.22-.06-.43-.11-.63-.18l-3-.9a7.2,7.2,0,0,0-.68-1.36C289.68,197.76,289.57,197.63,289.45,197.51Z" style="fill:#fafafa"></path><path d="M286.94,195.83a4,4,0,0,1,1.23-1.3,3.18,3.18,0,0,1,3.34,1,4.85,4.85,0,0,0-1.35.14,5.08,5.08,0,0,0-2.51,1.56,3.8,3.8,0,0,0-1.27.74A3.68,3.68,0,0,1,286.94,195.83Z" style="fill:#fafafa"></path><path d="M282.89,199.19a6,6,0,0,1,3.22-4.09,5,5,0,0,0-.41.72c-.48,1.08-.8,2.47-.11,3.36,0,.33.22.69.08,1a1.58,1.58,0,0,1-1.95.91A1.67,1.67,0,0,1,282.89,199.19Z" style="fill:#fafafa"></path><path d="M261.67,178.9c.47.13.95.28,1.41.44.75.26,1.47.56,2.22.79.4,1,.85,1.9-.18,2.58s-1.57,0-2.07-.61a2.76,2.76,0,0,1-.37-.73Z" style="fill:#fafafa"></path><path d="M259.54,174l1.46.44c.7.22,1.51.35,2.22.6.46,1.09.9,2.19,1.32,3.23l-1-.35c-.89-.29-1.8-.52-2.69-.82l-.4-.93C260.19,175.41,259.86,174.68,259.54,174Z" style="fill:#fafafa"></path><path d="M257.77,170.41a2.72,2.72,0,0,1,1-.46,4.46,4.46,0,0,1,2.12.14c.52.94,1,2,1.52,3.13l-.63-.18-3-.9a7.85,7.85,0,0,0-.68-1.36C258,170.66,257.89,170.53,257.77,170.41Z" style="fill:#fafafa"></path><path d="M255.25,168.73a3.85,3.85,0,0,1,1.24-1.3,3.16,3.16,0,0,1,3.34,1,4.5,4.5,0,0,0-1.35.14,5.08,5.08,0,0,0-2.51,1.56,3.8,3.8,0,0,0-1.27.74A3.75,3.75,0,0,1,255.25,168.73Z" style="fill:#fafafa"></path><path d="M251.21,172.09a6,6,0,0,1,3.22-4.09,3.63,3.63,0,0,0-.41.72c-.48,1.08-.8,2.47-.12,3.36,0,.33.23.69.09,1a1.58,1.58,0,0,1-2,.91A1.66,1.66,0,0,1,251.21,172.09Z" style="fill:#fafafa"></path><path d="M297.73,285.7c-.16.47-.33.93-.52,1.39-.31.73-.64,1.43-.91,2.17-1,.35-1.95.74-2.57-.32s0-1.58.73-2a3,3,0,0,1,.74-.33Z" style="fill:#fafafa"></path><path d="M302.79,283.86l-.53,1.43c-.26.69-.43,1.49-.73,2.19l-3.3,1.13c.14-.31.28-.62.41-.93.34-.87.62-1.77,1-2.64l.95-.35Z" style="fill:#fafafa"></path><path d="M306.43,282.29a2.76,2.76,0,0,1,.4,1.07,4.5,4.5,0,0,1-.26,2.1c-1,.47-2.07.92-3.21,1.35l.21-.62c.36-1,.72-2,1.07-3a7.47,7.47,0,0,0,1.4-.6Z" style="fill:#fafafa"></path><path d="M308.25,279.87a4.06,4.06,0,0,1,1.23,1.31,3.2,3.2,0,0,1-1.17,3.28,4.83,4.83,0,0,0-.06-1.36,5.11,5.11,0,0,0-1.42-2.59,4,4,0,0,0-.67-1.31A3.81,3.81,0,0,1,308.25,279.87Z" style="fill:#fafafa"></path><path d="M305.12,275.65a6,6,0,0,1,3.91,3.44,4.64,4.64,0,0,0-.7-.45c-1.05-.54-2.43-.94-3.35-.3-.33-.06-.7.18-1.05,0a1.56,1.56,0,0,1-.79-2A1.65,1.65,0,0,1,305.12,275.65Z" style="fill:#fafafa"></path><path d="M336.5,306.5c.48-.1,1-.19,1.46-.26.79-.11,1.56-.18,2.34-.33.79.67,1.63,1.3,1,2.38s-1.38.76-2.12.41a2.9,2.9,0,0,1-.66-.47Z" style="fill:#fafafa"></path><path d="M332.33,303.09l1.51-.28c.72-.13,1.5-.38,2.25-.49l2.65,2.26-1,.13c-.92.15-1.84.36-2.77.51l-.78-.64C333.58,304.08,333,303.58,332.33,303.09Z" style="fill:#fafafa"></path><path d="M329.13,300.76a2.74,2.74,0,0,1,.71-.89,4.53,4.53,0,0,1,2-.85c.89.6,1.83,1.31,2.79,2.07l-.64.14-3.11.6a7.33,7.33,0,0,0-1.23-.9Z" style="fill:#fafafa"></path><path d="M326.12,300.43a3.89,3.89,0,0,1,.5-1.72A3.16,3.16,0,0,1,330,298a4.54,4.54,0,0,0-1.14.74,5.12,5.12,0,0,0-1.51,2.54,3.78,3.78,0,0,0-.78,1.25A3.76,3.76,0,0,1,326.12,300.43Z" style="fill:#fafafa"></path><path d="M324.08,305.28a6,6,0,0,1,1-5.12,4.54,4.54,0,0,0,0,.83c.08,1.18.43,2.56,1.45,3,.11.31.52.51.56.89a1.58,1.58,0,0,1-1.32,1.7A1.65,1.65,0,0,1,324.08,305.28Z" style="fill:#fafafa"></path><path d="M288.33,244.55c.4-.29.8-.59,1.21-.86.66-.44,1.33-.83,2-1.29,1,.26,2,.47,1.95,1.7s-.92,1.28-1.74,1.28a2.75,2.75,0,0,1-.8-.14Z" style="fill:#fafafa"></path><path d="M283.11,243.27l1.23-.9c.6-.43,1.2-1,1.83-1.41l3.37.9c-.29.18-.58.35-.85.55-.78.53-1.51,1.12-2.28,1.65l-1-.25Z" style="fill:#fafafa"></path><path d="M279.21,242.54a2.9,2.9,0,0,1,.26-1.11,4.5,4.5,0,0,1,1.39-1.6c1.07.15,2.23.39,3.42.67l-.52.4c-.85.62-1.7,1.24-2.55,1.88a6.89,6.89,0,0,0-1.49-.29Z" style="fill:#fafafa"></path><path d="M276.36,243.53a3.92,3.92,0,0,1-.3-1.77,3.18,3.18,0,0,1,2.8-2.07,4.48,4.48,0,0,0-.7,1.16,5,5,0,0,0-.27,2.94,4,4,0,0,0-.18,1.47A3.74,3.74,0,0,1,276.36,243.53Z" style="fill:#fafafa"></path><path d="M276.6,248.79a6,6,0,0,1-1.33-5,4.6,4.6,0,0,0,.33.76c.57,1,1.49,2.13,2.61,2.12.24.23.69.23.89.56a1.58,1.58,0,0,1-.46,2.1A1.66,1.66,0,0,1,276.6,248.79Z" style="fill:#fafafa"></path><path d="M335.43,268.41c.4-.29.8-.59,1.21-.86.66-.44,1.33-.83,2-1.29,1,.26,2,.47,1.94,1.7s-.92,1.28-1.73,1.28a2.7,2.7,0,0,1-.8-.14Z" style="fill:#fafafa"></path><path d="M330.2,267.13l1.24-.9c.6-.43,1.19-1,1.83-1.41l3.36.9-.85.55c-.77.53-1.51,1.12-2.28,1.65l-1-.25Z" style="fill:#fafafa"></path><path d="M326.31,266.4a2.73,2.73,0,0,1,.26-1.11,4.4,4.4,0,0,1,1.39-1.6c1.06.15,2.22.39,3.41.67l-.51.4c-.86.62-1.71,1.24-2.56,1.88a7.41,7.41,0,0,0-1.49-.29Z" style="fill:#fafafa"></path><path d="M323.45,267.39a3.89,3.89,0,0,1-.29-1.76,3.18,3.18,0,0,1,2.8-2.08,4.51,4.51,0,0,0-.71,1.16,5.09,5.09,0,0,0-.27,2.94,3.77,3.77,0,0,0-.17,1.47A3.83,3.83,0,0,1,323.45,267.39Z" style="fill:#fafafa"></path><path d="M323.69,272.65a6.07,6.07,0,0,1-1.32-5,3.89,3.89,0,0,0,.33.76c.57,1,1.49,2.13,2.61,2.12.23.23.69.24.88.56a1.57,1.57,0,0,1-.45,2.1A1.67,1.67,0,0,1,323.69,272.65Z" style="fill:#fafafa"></path><path d="M258.56,269.52c.4-.3.8-.59,1.21-.86.67-.44,1.34-.84,2-1.3,1,.26,2,.48,1.95,1.7s-.92,1.28-1.74,1.29a3.75,3.75,0,0,1-.8-.14Z" style="fill:#fafafa"></path><path d="M253.34,268.23c.41-.3.82-.6,1.24-.89.59-.43,1.19-1,1.82-1.41,1.14.29,2.28.6,3.37.9-.29.17-.57.35-.85.54-.77.53-1.51,1.12-2.28,1.65l-1-.24Z" style="fill:#fafafa"></path><path d="M249.45,267.5a2.81,2.81,0,0,1,.26-1.11,4.47,4.47,0,0,1,1.39-1.6c1.06.16,2.22.39,3.41.67l-.52.4-2.55,1.88a7.53,7.53,0,0,0-1.49-.28Z" style="fill:#fafafa"></path><path d="M246.59,268.5a3.78,3.78,0,0,1-.29-1.77,3.17,3.17,0,0,1,2.79-2.07,4.78,4.78,0,0,0-.7,1.16,5.08,5.08,0,0,0-.27,2.94,3.72,3.72,0,0,0-.17,1.46A3.8,3.8,0,0,1,246.59,268.5Z" style="fill:#fafafa"></path><path d="M246.83,273.75a6,6,0,0,1-1.32-5,4.64,4.64,0,0,0,.32.77c.58,1,1.5,2.13,2.62,2.12.23.22.68.23.88.56a1.59,1.59,0,0,1-.45,2.1A1.67,1.67,0,0,1,246.83,273.75Z" style="fill:#fafafa"></path><path d="M313.9,237.1c.45.21.9.43,1.33.66.7.38,1.37.78,2.08,1.13.24,1,.54,2-.58,2.52s-1.57-.21-2-.93a3.48,3.48,0,0,1-.25-.77C314.32,238.85,314.11,238,313.9,237.1Z" style="fill:#fafafa"></path><path d="M312.57,231.89l1.37.67c.66.32,1.44.58,2.11.94.28,1.14.54,2.3.79,3.39-.29-.17-.58-.34-.88-.49-.83-.43-1.7-.8-2.53-1.23-.08-.33-.17-.66-.25-1Z" style="fill:#fafafa"></path><path d="M311.37,228.11a2.89,2.89,0,0,1,1.1-.29,4.43,4.43,0,0,1,2.07.47c.36,1,.7,2.14,1,3.32l-.59-.26L312.1,230a7.29,7.29,0,0,0-.45-1.44C311.56,228.39,311.46,228.25,311.37,228.11Z" style="fill:#fafafa"></path><path d="M309.14,226.07a3.94,3.94,0,0,1,1.42-1.1,3.17,3.17,0,0,1,3.15,1.49,5,5,0,0,0-1.35-.08,5.13,5.13,0,0,0-2.72,1.16,3.55,3.55,0,0,0-1.37.54A3.72,3.72,0,0,1,309.14,226.07Z" style="fill:#fafafa"></path><path d="M304.63,228.76a6,6,0,0,1,3.81-3.55,4.06,4.06,0,0,0-.51.65c-.64,1-1.18,2.32-.64,3.31-.09.31.12.71-.08,1a1.57,1.57,0,0,1-2.06.59A1.65,1.65,0,0,1,304.63,228.76Z" style="fill:#fafafa"></path><path d="M266.48,306.69c.45.21.9.42,1.33.66.7.37,1.36.78,2.07,1.12.25,1,.54,2-.58,2.52s-1.56-.21-1.95-.92a2.75,2.75,0,0,1-.25-.78C266.89,308.44,266.69,307.56,266.48,306.69Z" style="fill:#fafafa"></path><path d="M265.14,301.48l1.38.66c.66.33,1.43.58,2.1.95.28,1.14.55,2.29.8,3.39-.29-.17-.58-.34-.88-.49-.84-.43-1.7-.8-2.54-1.23-.08-.33-.16-.66-.25-1C265.56,303,265.35,302.24,265.14,301.48Z" style="fill:#fafafa"></path><path d="M264,297.7a2.85,2.85,0,0,1,1.1-.3,4.72,4.72,0,0,1,2.07.47c.36,1,.7,2.15,1,3.33l-.6-.27-2.86-1.36a7,7,0,0,0-.46-1.45Z" style="fill:#fafafa"></path><path d="M261.72,295.65a3.92,3.92,0,0,1,1.42-1.09,3.17,3.17,0,0,1,3.15,1.49,4.38,4.38,0,0,0-1.36-.08,5.11,5.11,0,0,0-2.72,1.15,4,4,0,0,0-1.37.54A3.8,3.8,0,0,1,261.72,295.65Z" style="fill:#fafafa"></path><path d="M257.2,298.35A6,6,0,0,1,261,294.8a4.78,4.78,0,0,0-.52.65c-.64,1-1.17,2.32-.63,3.3-.09.32.11.72-.08,1a1.58,1.58,0,0,1-2.07.6A1.67,1.67,0,0,1,257.2,298.35Z" style="fill:#fafafa"></path><g style="opacity:0.30000000000000004"><path d="M319.41,301.84c1.42-2.63,3.34-6.17,4.73-8.82,0,0,1-6.53,1.71-10,2.48-12.27,5.57-24.38,8-36.64q-8.1,17.38-16.19,34.76a3.12,3.12,0,0,1-1.62,1.87,2.78,2.78,0,0,1-2.34-.67c-6.71-4.71-8-13.95-12.07-21.06-1.95-3.42-4.74-7.19-3.38-10.89.75-2.07,2.66-3.49,3.82-5.36,2.89-4.67.57-10.7-1.8-15.66-1.39-2.88-2.8-6.22-1.52-9.16.82-1.88,2.61-3.19,3.55-5,1.16-2.29.82-5.06,0-7.51a23.62,23.62,0,0,0-6.53-10.23L274,226.52v24.22Z"></path></g><path d="M300.48,58.52h-1.73c-17.48,0-32,13.13-33.37,30.1-1.27,15.78-2.47,33.23-2.35,41.69.26,17.52,18.27,20.21,18.27,20.21l-.66,15.58a21.43,21.43,0,0,0,20.17,22.12h0a21.43,21.43,0,0,0,22.66-20.37l3.73-74C328.78,75.61,319.21,59.55,300.48,58.52Z" style="fill:#ffbe9d"></path><path d="M281.15,150.5a44.57,44.57,0,0,0,23.57-6.77s-5.52,12.63-23.48,11.08Z" style="fill:#eb996e"></path><path d="M271.41,101.9a2.54,2.54,0,0,0,2.48,2.52,2.44,2.44,0,0,0,2.65-2.27,2.54,2.54,0,0,0-2.48-2.52A2.44,2.44,0,0,0,271.41,101.9Z" style="fill:#263238"></path><path d="M269.27,97.18c.32.33,2.26-1.08,5-1.08s4.79,1.35,5.09,1c.15-.15-.18-.74-1.06-1.36a7.21,7.21,0,0,0-4.08-1.22,7,7,0,0,0-4,1.27C269.4,96.45,269.11,97,269.27,97.18Z" style="fill:#263238"></path><path d="M297.58,102.71a2.53,2.53,0,0,0,2.49,2.52,2.43,2.43,0,0,0,2.64-2.26,2.53,2.53,0,0,0-2.48-2.52A2.44,2.44,0,0,0,297.58,102.71Z" style="fill:#263238"></path><path d="M295.09,97.63c.32.33,2.27-1.08,5-1.08s4.79,1.35,5.09,1c.15-.15-.17-.74-1.06-1.36A7.13,7.13,0,0,0,300.07,95a6.82,6.82,0,0,0-4,1.27C295.22,96.89,294.93,97.49,295.09,97.63Z" style="fill:#263238"></path><path d="M286.46,117.62c0-.15-1.71-.43-4.49-.78-.71-.06-1.38-.2-1.5-.67a3.41,3.41,0,0,1,.47-2q1-2.49,2.07-5.24c2.89-7.46,5-13.6,4.67-13.71s-2.9,5.85-5.79,13.31c-.69,1.84-1.36,3.6-2,5.27a3.94,3.94,0,0,0-.36,2.7,1.75,1.75,0,0,0,1.17,1,5.09,5.09,0,0,0,1.2.16C284.71,117.77,286.45,117.78,286.46,117.62Z" style="fill:#263238"></path><path d="M294.6,119.47c-.45,0-.45,2.9-3,5s-5.76,1.76-5.79,2.17c0,.19.72.57,2.07.6a7.59,7.59,0,0,0,4.83-1.65A6.28,6.28,0,0,0,295,121.4C295.14,120.18,294.81,119.45,294.6,119.47Z" style="fill:#263238"></path><path d="M295.72,87.08c.27.73,3,.38,6.28.75s5.87,1.23,6.3.58c.19-.32-.27-1-1.33-1.71a11.17,11.17,0,0,0-9.58-1C296.2,86.15,295.6,86.73,295.72,87.08Z" style="fill:#263238"></path><path d="M270.27,89.39c.49.61,2.39,0,4.68-.07s4.23.41,4.68-.23c.19-.31-.11-.93-1-1.5a6.93,6.93,0,0,0-7.55.24C270.32,88.46,270.05,89.09,270.27,89.39Z" style="fill:#263238"></path><path d="M324.51,106.79c.31-.13,12.36-3.59,12,8.39s-12.65,9.15-12.66,8.81S324.51,106.79,324.51,106.79Z" style="fill:#ffbe9d"></path><path d="M326.66,119.56c.06,0,.21.15.57.32a2.16,2.16,0,0,0,1.6.08c1.31-.42,2.47-2.4,2.59-4.56a6.71,6.71,0,0,0-.5-3,2.49,2.49,0,0,0-1.57-1.65,1.11,1.11,0,0,0-1.28.54c-.17.33-.1.57-.17.59s-.26-.21-.14-.7a1.32,1.32,0,0,1,.5-.74,1.7,1.7,0,0,1,1.2-.27,3,3,0,0,1,2.18,1.93,6.93,6.93,0,0,1,.64,3.36c-.15,2.41-1.49,4.63-3.28,5.08a2.36,2.36,0,0,1-2-.37C326.67,119.85,326.62,119.58,326.66,119.56Z" style="fill:#eb996e"></path><path d="M316.44,71.17l-51.31,1.1a23.08,23.08,0,0,1,7.54-8.49,40.71,40.71,0,0,1,23.23-8.14c8.37-.15,25.41,9.78,31.47,15.4,4.85,4.49,4.82,8.38,4.82,8.38.77,6.48-2.95,13.85-4.43,20.21-.77,3.28-2.24,13.2-2.24,13.2h0c-2.83,0-3.88-2.2-3.45-4.92l.53-10.68a15.9,15.9,0,0,1-5.06-18.83C318.27,77.43,319.83,73,316.44,71.17Z" style="fill:#263238"></path><path d="M305.67,109.06a.32.32,0,0,0,.13-.63.32.32,0,0,0-.37.26A.31.31,0,0,0,305.67,109.06Z" style="fill:#eb996e"></path><path d="M300.38,107.91a.36.36,0,0,0,.38-.31.34.34,0,0,0-.23-.42.33.33,0,0,0-.37.3A.35.35,0,0,0,300.38,107.91Z" style="fill:#eb996e"></path><path d="M296.82,107.83c.17,0,.33-.18.37-.45s-.08-.5-.24-.52-.33.18-.37.45S296.66,107.81,296.82,107.83Z" style="fill:#eb996e"></path><path d="M303.08,112.3c.17,0,.3-.09.3-.19s-.14-.19-.3-.19-.31.08-.31.19S302.91,112.3,303.08,112.3Z" style="fill:#eb996e"></path><path d="M298.23,111.21a.31.31,0,0,0,.33-.31.31.31,0,0,0-.27-.36.34.34,0,0,0-.34.31A.32.32,0,0,0,298.23,111.21Z" style="fill:#eb996e"></path><path d="M273,108.33a.34.34,0,0,0,.13-.66.33.33,0,0,0-.36.28A.31.31,0,0,0,273,108.33Z" style="fill:#eb996e"></path><path d="M269.4,108a.35.35,0,0,0,.34-.35.35.35,0,0,0-.27-.4.36.36,0,0,0-.34.35A.35.35,0,0,0,269.4,108Z" style="fill:#eb996e"></path><path d="M276.18,108.41a.28.28,0,0,0,.35-.2.28.28,0,0,0-.24-.31.3.3,0,0,0-.36.2A.29.29,0,0,0,276.18,108.41Z" style="fill:#eb996e"></path><path d="M273.52,111.92a.33.33,0,0,0,.42-.19.31.31,0,0,0-.14-.43.33.33,0,0,0-.42.19A.32.32,0,0,0,273.52,111.92Z" style="fill:#eb996e"></path><path d="M270.44,111.33a.28.28,0,0,0,.23-.32.29.29,0,0,0-.36-.16.27.27,0,0,0-.23.32A.28.28,0,0,0,270.44,111.33Z" style="fill:#eb996e"></path><path d="M327.71,71.72a14.35,14.35,0,0,0-2.88-12.84,15.23,15.23,0,0,0-12.28-5.52c-2.4.09-4.78.75-7.16.5-4.44-.47-7.87-3.94-12-5.62A15.88,15.88,0,0,0,275,53.63c-1.56,2.27-2.59,5.07-5,6.5-2.07,1.24-4.67,1.13-7,1.81a11.15,11.15,0,0,0-7.67,11,13.15,13.15,0,0,0,8.19,11,16.86,16.86,0,0,0,14.19-1c3.87-2.1,7.33-5.68,11.76-5.55,4.59.13,8.6,4.34,13.1,3.47,2.36-.46,4.18-2.23,5.9-3.86s3.72-3.29,6.12-3.43,3.65,3.07,2.79,5.26l10.35-7.16" style="fill:#263238"></path><path d="M266.13,65.93s0,.06.08.17a3.64,3.64,0,0,0,.3.48A7.87,7.87,0,0,0,268,68.21a9.09,9.09,0,0,0,3,1.72,9,9,0,0,0,4.66.27,9.26,9.26,0,0,0,4.91-2.72c1.4-1.5,2.23-3.5,3.54-5.26A7.08,7.08,0,0,1,286.62,60a7.38,7.38,0,0,1,3.4-.73,7.83,7.83,0,0,1,3.49.92,6.38,6.38,0,0,1,2.58,2.57,36.57,36.57,0,0,0,1.81,3.37,4.25,4.25,0,0,0,3.28,2,6.57,6.57,0,0,0,3.59-1,13.74,13.74,0,0,0,2.72-2.19c1.58-1.56,3.15-3.11,5.09-3.53a6.55,6.55,0,0,1,5.15,1.18A8.68,8.68,0,0,1,320.56,66a14,14,0,0,1,1.06,3.22c.19.91.28,1.63.34,2.12a4.36,4.36,0,0,0,.11.74s0-.06,0-.19,0-.31,0-.56a19.47,19.47,0,0,0-.25-2.15,13.42,13.42,0,0,0-1-3.29,8.85,8.85,0,0,0-2.87-3.58A7,7,0,0,0,312.49,61c-2.11.44-3.74,2.07-5.32,3.6a12.73,12.73,0,0,1-2.65,2.12,6.05,6.05,0,0,1-3.31.93,3.79,3.79,0,0,1-2.91-1.75c-.69-1-1.14-2.19-1.78-3.33a6.92,6.92,0,0,0-2.76-2.76,8.22,8.22,0,0,0-3.73-1,7.87,7.87,0,0,0-3.63.79A7.46,7.46,0,0,0,283.77,62c-1.34,1.83-2.15,3.82-3.48,5.26a9,9,0,0,1-4.68,2.65,8.69,8.69,0,0,1-4.49-.19,9.36,9.36,0,0,1-3-1.61A11.39,11.39,0,0,1,266.13,65.93Z" style="fill:#455a64"></path><path d="M256.83,66.11a2.48,2.48,0,0,0-.21,1,7.42,7.42,0,0,0,.26,2.68,9.21,9.21,0,0,0,1.92,3.52,11.17,11.17,0,0,0,4.06,2.88,17,17,0,0,0,8.95,1,24.88,24.88,0,0,0,2.69-.52,3.59,3.59,0,0,0,.95-.31c0-.08-1.4.26-3.68.49a17.79,17.79,0,0,1-8.71-1.08A11,11,0,0,1,259.15,73a9.16,9.16,0,0,1-1.93-3.33A10.11,10.11,0,0,1,256.83,66.11Z" style="fill:#455a64"></path><path d="M193.34,137.75A17.89,17.89,0,0,1,208,121.67c2-.31,4.15-.28,6-1.12a34,34,0,0,0,4.19-2.8,11.94,11.94,0,0,1,14.77,2c3.41,3.77,4.29-1.88,12,2,6.37,3.19,3.54,8.47,3.54,8.47A13.71,13.71,0,0,1,262.83,140c1,3.88.55,8.74,3.8,11.09,1.58,1.14,3.68,1.33,5.3,2.41,3,2,3.42,6.25,3,9.84s-1.23,7.43.33,10.69c2.55,5.35,10.55,7,11.93,12.74.66,2.73-.26,6.11,1.8,8a9.52,9.52,0,0,0,3,1.49,12.5,12.5,0,0,1,2.05,22.12c-1.07.69-2.35,1.34-2.69,2.57s.6,2.68,1.32,3.9a12,12,0,0,1-15.94,16.77,18.76,18.76,0,0,1-10.39,9.55,11.44,11.44,0,0,1-6.53.64,13.31,13.31,0,0,1-4.7-2.45c-6.78-5.1-16.34-13-17.53-21.36" style="fill:#263238"></path><path d="M193.18,150.83l-.3-6,35.92-8c11.1-1.52,23.49,9.27,24.54,20.43,1.17,12.39,2.11,27.58.93,36.89-2.39,18.73-16.6,21.54-16.6,21.54l.5,18.51L197,236Z" style="fill:#a36957"></path><path d="M246.58,170.79a2.38,2.38,0,0,1-2.23,2.48,2.29,2.29,0,0,1-2.53-2.08,2.39,2.39,0,0,1,2.23-2.48A2.29,2.29,0,0,1,246.58,170.79Z" style="fill:#263238"></path><path d="M249.65,165.28c-.29.33-2.14-1-4.71-.87s-4.42,1.43-4.71,1.12c-.14-.13.15-.7,1-1.33a6.53,6.53,0,0,1,3.75-1.28A6.33,6.33,0,0,1,248.7,164C249.51,164.59,249.79,165.14,249.65,165.28Z" style="fill:#263238"></path><path d="M222.57,172a2.4,2.4,0,0,1-2.23,2.49,2.29,2.29,0,0,1-2.53-2.08,2.4,2.4,0,0,1,2.23-2.49A2.28,2.28,0,0,1,222.57,172Z" style="fill:#263238"></path><path d="M224.38,166.55c-.28.32-2.14-1-4.71-.88s-4.42,1.43-4.7,1.13c-.15-.14.14-.71.94-1.33a6.54,6.54,0,0,1,3.76-1.29,6.3,6.3,0,0,1,3.76,1.09C224.24,165.85,224.52,166.41,224.38,166.55Z" style="fill:#263238"></path><path d="M234.31,185.33c0-.14,1.57-.47,4.15-.88.66-.09,1.27-.24,1.37-.69a3.35,3.35,0,0,0-.5-1.93l-2.09-4.94c-2.92-7-5.06-12.83-4.77-12.95s2.88,5.5,5.8,12.53l2,5a3.76,3.76,0,0,1,.42,2.56,1.65,1.65,0,0,1-1,1,4.45,4.45,0,0,1-1.11.19C235.94,185.42,234.32,185.48,234.31,185.33Z" style="fill:#263238"></path><path d="M237.67,215.73a49.4,49.4,0,0,1-25.81-5.9s6.7,12.85,25.94,10.55Z" style="fill:#7c3b29"></path><path d="M233.41,191.57a4.63,4.63,0,0,0-4.21-1.6,4.25,4.25,0,0,0-2.87,1.66,2.69,2.69,0,0,0-.11,3.07,3.1,3.1,0,0,0,3.4.75,9.88,9.88,0,0,0,3.23-2.06,3,3,0,0,0,.71-.79.86.86,0,0,0,0-.95" style="fill:#7c3b29"></path><path d="M226.79,187.35c.42,0,.51,2.75,3,4.66s5.41,1.51,5.44,1.9c.05.17-.64.56-1.9.63a7,7,0,0,1-4.54-1.42,6,6,0,0,1-2.3-3.92C226.31,188,226.6,187.34,226.79,187.35Z" style="fill:#263238"></path><path d="M224.73,156.45c-.23.71-2.81.45-5.81.91s-5.42,1.36-5.84.74c-.19-.29.21-1,1.18-1.67a9.75,9.75,0,0,1,4.29-1.66,9.9,9.9,0,0,1,4.59.4C224.26,155.58,224.83,156.11,224.73,156.45Z" style="fill:#263238"></path><path d="M248.47,157.87c-.43.6-2.22,0-4.35.08s-3.93.52-4.36-.08c-.19-.29.07-.88.85-1.46a6.29,6.29,0,0,1,7,0C248.4,157,248.66,157.58,248.47,157.87Z" style="fill:#263238"></path><path d="M256.51,134.39C254,141.1,248,151.26,240.9,152.47a21.08,21.08,0,0,1-19.31-7.08c-.82,5.36-6.57,8.46-11.87,9.6a21.32,21.32,0,0,1-11.35-.22c-3.62-1.24-6.82-4.19-7.57-8s4.17-13.31,7.9-14.2" style="fill:#263238"></path><path d="M205.33,233.52a14.69,14.69,0,0,1-9.79,13.77,10.41,10.41,0,0,1-19.8,5.48,12.61,12.61,0,0,0-1.74-3.41c-2-2.18-5.5-1.47-8.36-2.17-5.15-1.27-7.77-7.28-7.58-12.58a12.12,12.12,0,0,0-.08-3.13c-.46-2.09-2.23-3.58-3.58-5.24-5.58-6.81-4.21-17.38.91-24.53,1.71-2.39,3.9-4.91,3.52-7.82-.21-1.62-1.21-3-1.92-4.5a13.32,13.32,0,0,1,2.54-14.73,4.23,4.23,0,0,0,1.41-2,4,4,0,0,0-.13-1.54c-1.46-7.7,4.22-16,11.93-17.51a3.85,3.85,0,0,0,1.35-.4c1.15-.71,1.07-2.36,1.13-3.71.16-3.56,2.42-10.36,5-12.87,7-6.94,14.69-2.25,17.46,0,0,0,7,25.09,6.3,29.9s-3.29,16.89-1.52,22.16,4.81,16.1,3,21.1S205.33,233.52,205.33,233.52Z" style="fill:#263238"></path><path d="M268.83,234.81s15,7,19.81,17.27,46.28,65.34,46.28,73.2S330.85,354.45,311,353s-38.66-21.23-38.66-21.23Z" style="fill:#455a64"></path><path d="M206,230.85,181.4,239c-3.76,5,5.65,87,5.65,87s-5.25,31.16-5.25,39.36A16.26,16.26,0,0,0,190.08,380l89.65,2.71,4.58-4a12.91,12.91,0,0,0,3-10L270.65,235.55l-31.21-6.77Z" style="fill:#455a64"></path><path d="M181.5,238.87s-16.93,6.87-21.59,21.7-17,75.93-18.74,87.59c-1.16,8-3.5,29.32,9.63,37.37s28.59-5.55,33.25-11.06,20-23.59,20-23.59L185,330.32l-2.57,1.81,4.13-34.37Z" style="fill:#455a64"></path><polygon points="201.49 234.81 202.13 221.27 242.1 221.27 244.04 234.81 201.49 234.81" style="fill:#455a64"></polygon><path d="M185,330.32a6.32,6.32,0,0,1-1,.85c-.67.51-1.66,1.24-2.89,2.13-2.46,1.78-5.9,4.19-9.74,6.78S164,345,161.4,346.56c-1.29.81-2.33,1.45-3.07,1.88a6.86,6.86,0,0,1-1.16.63,7,7,0,0,1,1.05-.8l3-2,9.85-6.6,9.83-6.65,3-2A7,7,0,0,1,185,330.32Z" style="fill:#263238"></path><path d="M187.15,325.91a5,5,0,0,1-.16-.66c-.1-.49-.22-1.12-.38-1.91-.32-1.73-.76-4.12-1.29-7-1-6-2.49-14.21-4.07-23.27s-2.91-17.29-3.92-23.3c-.47-2.94-.86-5.35-1.13-7.08-.12-.79-.21-1.43-.28-1.92a5,5,0,0,1-.07-.68,2.63,2.63,0,0,1,.17.66c.1.48.22,1.12.38,1.91.31,1.72.75,4.11,1.29,7,1.05,6,2.48,14.21,4.07,23.28s2.91,17.28,3.92,23.3c.47,2.94.85,5.34,1.13,7.07.12.8.21,1.44.28,1.93A2.89,2.89,0,0,1,187.15,325.91Z" style="fill:#263238"></path><path d="M243.38,230.37a10.07,10.07,0,0,1-1.29,1c-.44.31-1,.64-1.64,1s-1.41.78-2.3,1.14a30.48,30.48,0,0,1-6.36,2,47.17,47.17,0,0,1-8.12.85,81.38,81.38,0,0,1-8.15-.25,47.24,47.24,0,0,1-6.6-.87,20,20,0,0,1-4.27-1.42,11.58,11.58,0,0,1-1.07-.59c-.24-.15-.36-.23-.35-.25s.53.25,1.5.65a22.79,22.79,0,0,0,4.26,1.25,51.42,51.42,0,0,0,6.57.75c2.48.16,5.22.28,8.1.21a49.28,49.28,0,0,0,8-.8,31.92,31.92,0,0,0,6.32-1.85A38.61,38.61,0,0,0,243.38,230.37Z" style="fill:#263238"></path><path d="M272.36,365a2.69,2.69,0,0,1-.61.13l-1.76.25c-.77.11-1.71.23-2.8.33s-2.34.24-3.73.31c-2.76.19-6.06.28-9.72.23s-7.69-.33-11.89-.82-8.16-1.23-11.74-2-6.76-1.67-9.4-2.52c-1.32-.39-2.5-.82-3.54-1.18s-1.93-.69-2.65-1l-1.65-.67a2.08,2.08,0,0,1-.56-.26,2.79,2.79,0,0,1,.6.16l1.68.58c.73.25,1.62.56,2.67.89s2.23.73,3.56,1.1c2.64.8,5.83,1.62,9.39,2.4s7.53,1.45,11.71,2,8.18.75,11.83.86,6.94,0,9.69-.12c1.38,0,2.63-.16,3.72-.23s2-.16,2.81-.24l1.77-.16A2.64,2.64,0,0,1,272.36,365Z" style="fill:#263238"></path><path d="M203.88,351.56a1.33,1.33,0,0,1-.23.37c-.16.24-.42.57-.76,1-.68.85-1.74,2-3.1,3.37-2.84,2.62-5.82,7.06-9.62,11.58a93.26,93.26,0,0,1-10.35,11,45.69,45.69,0,0,1-3.59,2.84c-.45.32-.81.54-1,.69a1.85,1.85,0,0,1-.39.21,11.76,11.76,0,0,1,1.3-1.06c.85-.67,2.06-1.65,3.48-2.95a110.89,110.89,0,0,0,10.19-11.06c1.89-2.26,3.6-4.48,5.2-6.47a42,42,0,0,1,4.56-5c1.39-1.34,2.49-2.44,3.21-3.24A14.13,14.13,0,0,1,203.88,351.56Z" style="fill:#263238"></path><path d="M178,334.25a10.91,10.91,0,0,0-3.18-1.77A11.22,11.22,0,0,0,171,332a20,20,0,0,0-4.78.86,62.19,62.19,0,0,0-8.4,3c-2.06,1-3.13,1.93-3.19,1.86a3.23,3.23,0,0,1,.73-.69,14.63,14.63,0,0,1,2.29-1.5,50,50,0,0,1,8.42-3.16,19.87,19.87,0,0,1,4.91-.83,11.09,11.09,0,0,1,4,.64,7.72,7.72,0,0,1,2.38,1.37A2.76,2.76,0,0,1,178,334.25Z" style="fill:#263238"></path><path d="M282.76,290.16a5.6,5.6,0,0,1-.43-1.22c-.24-.79-.57-1.94-1-3.36-.77-2.85-1.77-6.81-2.75-11.21s-1.76-8.41-2.26-11.32c-.25-1.46-.44-2.64-.56-3.46a7.35,7.35,0,0,1-.13-1.28,6.06,6.06,0,0,1,.33,1.25l.72,3.42c.6,2.89,1.43,6.88,2.41,11.28s1.91,8.36,2.6,11.23l.8,3.4A6.7,6.7,0,0,1,282.76,290.16Z" style="fill:#263238"></path><path d="M171,284.7a67,67,0,0,1-.62-7.13,69.06,69.06,0,0,1-.41-7.13,8,8,0,0,1,.41,2.06c.18,1.28.38,3.06.52,5s.2,3.76.21,5.06A8.52,8.52,0,0,1,171,284.7Z" style="fill:#fafafa"></path><path d="M175.45,278.91c0,.15-2.28-.29-5.08-.43s-5.08,0-5.1-.14a19.84,19.84,0,0,1,10.18.57Z" style="fill:#fafafa"></path><path d="M174.13,282.45a29.66,29.66,0,0,1-3.78-4.12,30.51,30.51,0,0,1-3.39-4.44,28.89,28.89,0,0,1,3.79,4.11A30.59,30.59,0,0,1,174.13,282.45Z" style="fill:#fafafa"></path><path d="M173.56,273a30.78,30.78,0,0,1-5.9,10c-.12-.09,1.36-2.23,3-5S173.43,272.91,173.56,273Z" style="fill:#fafafa"></path><path d="M191.32,285.37c-.14,0-.33-3.19-.61-7.12a69.06,69.06,0,0,1-.41-7.14,8.12,8.12,0,0,1,.41,2.07c.18,1.28.37,3.06.52,5s.2,3.77.2,5.06A7.89,7.89,0,0,1,191.32,285.37Z" style="fill:#fafafa"></path><path d="M195.75,279.58c0,.15-2.28-.28-5.08-.43s-5.09,0-5.1-.13a19.71,19.71,0,0,1,10.18.56Z" style="fill:#fafafa"></path><path d="M194.43,283.13a30.06,30.06,0,0,1-3.79-4.12,29.73,29.73,0,0,1-3.38-4.45,30.39,30.39,0,0,1,3.78,4.12A29.67,29.67,0,0,1,194.43,283.13Z" style="fill:#fafafa"></path><path d="M193.86,273.64A31,31,0,0,1,188,283.69c-.12-.09,1.36-2.24,3-5S193.72,273.58,193.86,273.64Z" style="fill:#fafafa"></path><path d="M210.4,271.64a66.92,66.92,0,0,1-.62-7.12,69.3,69.3,0,0,1-.41-7.14,8.1,8.1,0,0,1,.41,2.06c.18,1.28.38,3.06.52,5s.2,3.76.21,5.06A8.52,8.52,0,0,1,210.4,271.64Z" style="fill:#fafafa"></path><path d="M214.82,265.85c0,.15-2.28-.29-5.08-.43s-5.08,0-5.1-.14a19.84,19.84,0,0,1,10.18.57Z" style="fill:#fafafa"></path><path d="M213.5,269.39a29.91,29.91,0,0,1-3.78-4.11,30.88,30.88,0,0,1-3.39-4.45,29.2,29.2,0,0,1,3.78,4.11A30.88,30.88,0,0,1,213.5,269.39Z" style="fill:#fafafa"></path><path d="M212.93,259.91a21.24,21.24,0,0,1-2.47,5.3A21.78,21.78,0,0,1,207,270c-.12-.09,1.36-2.24,3-5S212.8,259.85,212.93,259.91Z" style="fill:#fafafa"></path><path d="M254.22,272.4a70.62,70.62,0,0,1-.62-7.13c-.28-3.93-.55-7.12-.41-7.14a8.12,8.12,0,0,1,.41,2.07c.18,1.28.38,3.06.52,5s.21,3.77.21,5.06A8.06,8.06,0,0,1,254.22,272.4Z" style="fill:#fafafa"></path><path d="M258.64,266.6c0,.15-2.28-.28-5.08-.43s-5.08,0-5.1-.13a14.52,14.52,0,0,1,5.13-.39A14.22,14.22,0,0,1,258.64,266.6Z" style="fill:#fafafa"></path><path d="M257.32,270.15a30.39,30.39,0,0,1-3.78-4.12,29.73,29.73,0,0,1-3.38-4.45,30.39,30.39,0,0,1,3.78,4.12A29.16,29.16,0,0,1,257.32,270.15Z" style="fill:#fafafa"></path><path d="M256.76,260.66a21.31,21.31,0,0,1-2.48,5.31,20.89,20.89,0,0,1-3.43,4.74c-.12-.09,1.36-2.24,3-5S256.62,260.6,256.76,260.66Z" style="fill:#fafafa"></path><path d="M232.19,284.1c-.14,0-.33-3.19-.61-7.13a69.06,69.06,0,0,1-.41-7.13,8,8,0,0,1,.41,2.06c.18,1.28.37,3.06.52,5s.2,3.76.2,5.06A8,8,0,0,1,232.19,284.1Z" style="fill:#fafafa"></path><path d="M236.62,278.31c0,.15-2.28-.29-5.08-.43s-5.09,0-5.1-.14a19.85,19.85,0,0,1,10.18.57Z" style="fill:#fafafa"></path><path d="M235.3,281.85a30.06,30.06,0,0,1-3.79-4.12,29.16,29.16,0,0,1-3.38-4.45,61.23,61.23,0,0,1,7.17,8.57Z" style="fill:#fafafa"></path><path d="M234.73,272.37a31,31,0,0,1-5.91,10c-.12-.09,1.36-2.23,3-5S234.59,272.31,234.73,272.37Z" style="fill:#fafafa"></path><path d="M255,291.83a70.21,70.21,0,0,1-.62-7.12,69.3,69.3,0,0,1-.41-7.14,8.1,8.1,0,0,1,.41,2.06c.18,1.28.38,3.07.52,5s.2,3.76.21,5.06A8.45,8.45,0,0,1,255,291.83Z" style="fill:#fafafa"></path><path d="M259.46,286c0,.15-2.28-.29-5.08-.43s-5.08,0-5.1-.13a14,14,0,0,1,5.13-.39A14.29,14.29,0,0,1,259.46,286Z" style="fill:#fafafa"></path><path d="M258.14,289.58A60.39,60.39,0,0,1,251,281a29.59,29.59,0,0,1,3.79,4.11A30.33,30.33,0,0,1,258.14,289.58Z" style="fill:#fafafa"></path><path d="M257.58,280.1a31.23,31.23,0,0,1-5.91,10c-.12-.09,1.36-2.24,3-5S257.44,280,257.58,280.1Z" style="fill:#fafafa"></path><path d="M271.48,284.68a70.24,70.24,0,0,1-.62-7.13c-.28-3.93-.55-7.12-.41-7.13a8,8,0,0,1,.41,2.06c.18,1.28.38,3.06.52,5s.21,3.76.21,5.06A8,8,0,0,1,271.48,284.68Z" style="fill:#fafafa"></path><path d="M275.9,278.89c0,.15-2.28-.29-5.08-.43s-5.08,0-5.1-.14a14.39,14.39,0,0,1,5.13-.38A14.22,14.22,0,0,1,275.9,278.89Z" style="fill:#fafafa"></path><path d="M274.58,282.43a30.39,30.39,0,0,1-3.78-4.12,29.16,29.16,0,0,1-3.38-4.45A30.39,30.39,0,0,1,271.2,278,29.73,29.73,0,0,1,274.58,282.43Z" style="fill:#fafafa"></path><path d="M274,273a21.51,21.51,0,0,1-2.48,5.3,20.89,20.89,0,0,1-3.43,4.74c-.12-.09,1.36-2.23,3-5S273.88,272.89,274,273Z" style="fill:#fafafa"></path><path d="M291,285.65a70.24,70.24,0,0,1-.62-7.13,69.06,69.06,0,0,1-.41-7.14,8.26,8.26,0,0,1,.41,2.07c.18,1.28.38,3.06.52,5s.2,3.76.21,5.06A8.58,8.58,0,0,1,291,285.65Z" style="fill:#fafafa"></path><path d="M295.46,279.85c0,.15-2.28-.28-5.08-.43s-5.08,0-5.1-.13a14.52,14.52,0,0,1,5.13-.39A14.84,14.84,0,0,1,295.46,279.85Z" style="fill:#fafafa"></path><path d="M294.14,283.4a30.39,30.39,0,0,1-3.78-4.12,29.67,29.67,0,0,1-3.39-4.45,30.06,30.06,0,0,1,3.79,4.12A29.73,29.73,0,0,1,294.14,283.4Z" style="fill:#fafafa"></path><path d="M293.58,273.92a21.51,21.51,0,0,1-2.48,5.3,20.89,20.89,0,0,1-3.43,4.74c-.12-.09,1.36-2.23,3-5S293.44,273.85,293.58,273.92Z" style="fill:#fafafa"></path><path d="M159.54,305.51a70.62,70.62,0,0,1-.62-7.13c-.28-3.93-.55-7.12-.41-7.14a8.51,8.51,0,0,1,.42,2.07c.18,1.28.37,3.06.51,5s.21,3.76.21,5.06A8,8,0,0,1,159.54,305.51Z" style="fill:#fafafa"></path><path d="M164,299.71c0,.15-2.28-.28-5.08-.43s-5.08,0-5.1-.13a14.56,14.56,0,0,1,5.13-.39A14.22,14.22,0,0,1,164,299.71Z" style="fill:#fafafa"></path><path d="M162.64,303.26a30.39,30.39,0,0,1-3.78-4.12,29.16,29.16,0,0,1-3.38-4.45,30.39,30.39,0,0,1,3.78,4.12A29.16,29.16,0,0,1,162.64,303.26Z" style="fill:#fafafa"></path><path d="M162.08,293.78a21.51,21.51,0,0,1-2.48,5.3,20.89,20.89,0,0,1-3.43,4.74c-.12-.09,1.36-2.24,3-5S161.94,293.71,162.08,293.78Z" style="fill:#fafafa"></path><path d="M177.5,309.11c-.14,0-.33-3.19-.61-7.12a69.06,69.06,0,0,1-.41-7.14,8.12,8.12,0,0,1,.41,2.07c.18,1.28.37,3.06.52,5s.2,3.77.21,5.06A8.1,8.1,0,0,1,177.5,309.11Z" style="fill:#fafafa"></path><path d="M181.93,303.32c0,.15-2.28-.28-5.08-.43s-5.09,0-5.1-.13a19.71,19.71,0,0,1,10.18.56Z" style="fill:#fafafa"></path><path d="M180.61,306.87a59.45,59.45,0,0,1-7.17-8.57,30.39,30.39,0,0,1,3.78,4.12A29.67,29.67,0,0,1,180.61,306.87Z" style="fill:#fafafa"></path><path d="M180,297.38a21.21,21.21,0,0,1-2.47,5.31,21.55,21.55,0,0,1-3.43,4.74c-.13-.09,1.35-2.24,3-5S179.9,297.32,180,297.38Z" style="fill:#fafafa"></path><path d="M211.11,295.57a70.21,70.21,0,0,1-.62-7.12c-.28-3.94-.55-7.12-.41-7.14a7.8,7.8,0,0,1,.42,2.06c.18,1.29.37,3.07.51,5s.21,3.76.21,5.06A7.89,7.89,0,0,1,211.11,295.57Z" style="fill:#fafafa"></path><path d="M215.53,289.78c0,.15-2.28-.28-5.08-.43s-5.08,0-5.1-.13a19.69,19.69,0,0,1,10.18.56Z" style="fill:#fafafa"></path><path d="M214.21,293.32a30.66,30.66,0,0,1-3.78-4.11,30.33,30.33,0,0,1-3.38-4.45,30.66,30.66,0,0,1,3.78,4.11A30.33,30.33,0,0,1,214.21,293.32Z" style="fill:#fafafa"></path><path d="M213.65,283.84a31.23,31.23,0,0,1-5.91,10.05c-.12-.09,1.36-2.24,3-5S213.51,283.78,213.65,283.84Z" style="fill:#fafafa"></path><path d="M250.52,442.49s54.39,15.06,56.58,15.83c3.27,1.15,2.72,13.16-2.38,13-2.41-.09-41.78,1.47-46.75,1.15s-20-6.22-20-6.22Z" style="fill:#DC9B9B"></path><path d="M273.18,463.25c.27,0,.64-2.84,2.4-5.84s4-4.79,3.84-5-2.8,1.33-4.63,4.55S273,463.27,273.18,463.25Z" style="fill:#263238"></path><path d="M267.51,460.68c.26,0,.81-2.53,2.26-5.37s3.16-4.83,3-5-2.27,1.6-3.77,4.61S267.27,460.66,267.51,460.68Z" style="fill:#263238"></path><path d="M262.19,459.25c.27,0,.06-2.73,1.27-5.74s3.15-4.89,3-5.09-2.55,1.47-3.81,4.75S262,459.33,262.19,459.25Z" style="fill:#263238"></path><path d="M263.15,452.23a9.67,9.67,0,0,0,.59-4.05,19.08,19.08,0,0,0-.56-4.44,17.42,17.42,0,0,0-.8-2.52,3.11,3.11,0,0,0-.88-1.34,1.44,1.44,0,0,0-1.86.1,2.39,2.39,0,0,0-.73,1.54,11.69,11.69,0,0,0-.07,1.43,11.41,11.41,0,0,0,.34,2.67,16.14,16.14,0,0,0,1.67,4.15,11.24,11.24,0,0,0,2.44,3.28c.13-.09-.78-1.36-1.87-3.57a18.49,18.49,0,0,1-1.43-4.05,12.4,12.4,0,0,1-.26-2.48c0-.84,0-1.88.5-2.29a.53.53,0,0,1,.72-.06,2.43,2.43,0,0,1,.6.95,19.49,19.49,0,0,1,.82,2.4,21.44,21.44,0,0,1,.72,4.25C263.25,450.67,263,452.2,263.15,452.23Z" style="fill:#263238"></path><path d="M263.08,451.67c0-.1-1.28-.55-3.5-.56a15.27,15.27,0,0,0-3.86.47,8.33,8.33,0,0,0-2.23.82,2.31,2.31,0,0,0-1.23,2.48,2.74,2.74,0,0,0,2,1.95,5,5,0,0,0,2.44,0,9.3,9.3,0,0,0,3.54-1.74,9.72,9.72,0,0,0,2.53-2.49,24.37,24.37,0,0,0-2.9,2,9.67,9.67,0,0,1-3.34,1.45,4.27,4.27,0,0,1-2,0,1.85,1.85,0,0,1-1.33-1.29,1.39,1.39,0,0,1,.81-1.52,8.24,8.24,0,0,1,2-.77,18.79,18.79,0,0,1,3.67-.64C261.73,451.6,263.06,451.82,263.08,451.67Z" style="fill:#263238"></path><path d="M281.54,463.83c.27,0,0-2.35,1.07-4.9s2.83-4.05,2.66-4.26-2.36,1.06-3.5,3.91S281.32,463.93,281.54,463.83Z" style="fill:#263238"></path><path d="M243.58,466.34a11,11,0,0,0,2.1,1,46.7,46.7,0,0,0,6.06,1.88,86.71,86.71,0,0,0,20.77,2c8.15-.09,15.49-.46,20.82-.68l6.3-.33a10.66,10.66,0,0,0,2.31-.25,11.18,11.18,0,0,0-2.32-.1l-6.31,0-20.81.41a97.3,97.3,0,0,1-20.62-1.69C246.68,467.51,243.64,466.17,243.58,466.34Z" style="fill:#263238"></path><path d="M242,467.58a44.72,44.72,0,0,0,4.08-1.84A18.8,18.8,0,0,1,256.34,464c4.1.62,7,3.38,8.9,5.29a32.87,32.87,0,0,0,3.13,3.2,16.37,16.37,0,0,0-2.66-3.64,21.37,21.37,0,0,0-3.61-3.37,12.79,12.79,0,0,0-5.62-2.38,18,18,0,0,0-10.7,2A14.64,14.64,0,0,0,242,467.58Z" style="fill:#263238"></path><g style="opacity:0.30000000000000004"><path d="M250.52,442.49s54.39,15.06,56.58,15.83c3.27,1.15,2.72,13.16-2.38,13-2.41-.09-41.78,1.47-46.75,1.15s-20-6.22-20-6.22Z"></path></g><path d="M190.08,380l-11.74,24.14s-62.79-19.1-78.61-18.22S71,393.15,67.88,406s-3.5,30.57,15,42.88S193,468,193,468h36.3l59.32-78.22L279.08,382Z" style="fill:#263238"></path><path d="M209.83,433a6.31,6.31,0,0,1-1.19,0c-.78-.06-1.94-.05-3.41-.26a70.7,70.7,0,0,1-12.3-2.54,118.2,118.2,0,0,1-17.36-6.79c-6.34-3-13.12-6.68-20.23-10.5a210.34,210.34,0,0,0-20.5-9.83,91.63,91.63,0,0,0-17.73-5.3,63,63,0,0,0-12.43-1.09c-1.48,0-2.62.13-3.4.14a6.71,6.71,0,0,1-1.19,0,8.23,8.23,0,0,1,1.18-.17c.77-.06,1.92-.27,3.4-.28a57.83,57.83,0,0,1,12.54.84,89.29,89.29,0,0,1,17.9,5.18,198.27,198.27,0,0,1,20.6,9.81c7.12,3.82,13.87,7.52,20.17,10.54a124.6,124.6,0,0,0,17.21,6.91,77,77,0,0,0,12.18,2.76c1.46.26,2.61.3,3.38.42A9,9,0,0,1,209.83,433Z" style="fill:#455a64"></path><path d="M252.73,461.6c11.66-4.59,75.79-25,98.49-51.23,6.3-7.28,7.47-14.88,6.22-21.77-3.17-17.5-19.26-29.17-35.95-22.56-2.38.94-7.83,3.06-10.11,4.29-6.23,3.35-107.11,67.33-107.11,67.33s17.58,34.28,17.14,35.59Z" style="fill:#263238"></path><path d="M284.32,385.53a1.44,1.44,0,0,1-.28.22l-.84.57-3.29,2.15-12.19,7.76-40.34,25.36-21.92,13.66.14-.45c4.67,11.23,8.65,20.81,11.5,27.65l3.23,7.94c.34.88.62,1.58.83,2.12a4.28,4.28,0,0,1,.25.74,3.12,3.12,0,0,1-.36-.7l-.94-2.07c-.82-1.89-2-4.54-3.42-7.86l-11.76-27.54-.12-.28.27-.17L227,420.92l40.47-25.16,12.31-7.55,3.37-2,.89-.51A1.16,1.16,0,0,1,284.32,385.53Z" style="fill:#455a64"></path><path d="M195.71,415.78a10.37,10.37,0,0,1-3-1.12,41.4,41.4,0,0,1-12.34-9,10.24,10.24,0,0,1-2-2.5c.18-.17,3.39,3.47,8.19,6.95S195.81,415.56,195.71,415.78Z" style="fill:#455a64"></path><path d="M230.63,387.35a23.76,23.76,0,0,1,.16,4c0,2.48.13,5.89.47,9.64s.86,7.13,1.26,9.57a24.11,24.11,0,0,1,.58,4,17.41,17.41,0,0,1-1.12-3.87,76.47,76.47,0,0,1-1.51-9.61,74.59,74.59,0,0,1-.24-9.71A17.92,17.92,0,0,1,230.63,387.35Z" style="fill:#455a64"></path><path d="M238.13,386.52s.3-.08.79.1a3.58,3.58,0,0,1,1.67,1.41,3.89,3.89,0,0,1,.48,3.23,3.53,3.53,0,0,1-3.26,2.29,3.43,3.43,0,0,1-3.44-2,3.58,3.58,0,0,1,.45-3.24,3.1,3.1,0,0,1,1.76-1.3c.51-.12.8,0,.8,0a3.73,3.73,0,0,0-2.09,1.6,3.11,3.11,0,0,0-.24,2.67,2.73,2.73,0,0,0,2.72,1.49,2.81,2.81,0,0,0,2.61-1.74,3.38,3.38,0,0,0-.27-2.71A4.63,4.63,0,0,0,238.13,386.52Z" style="fill:#455a64"></path><path d="M207.11,384a3.52,3.52,0,0,1,.55,1.19,11,11,0,0,1,.53,3.55,12.75,12.75,0,0,1-1.17,5.2,12.1,12.1,0,0,1-4.19,5,12.28,12.28,0,0,1-6.24,2,12.83,12.83,0,0,1-5.26-.88,10.91,10.91,0,0,1-3.09-1.83c-.64-.56-.93-.93-.89-1a18.76,18.76,0,0,0,4.17,2.26,12.79,12.79,0,0,0,5,.68,12,12,0,0,0,5.84-1.91,11.82,11.82,0,0,0,4-4.68,13,13,0,0,0,1.27-4.92A20.09,20.09,0,0,0,207.11,384Z" style="fill:#455a64"></path><path d="M267,395.92a4.09,4.09,0,0,1-2.38-.33,9,9,0,0,1-6-9.22,4.22,4.22,0,0,1,.65-2.31c.12,0-.11.91-.09,2.33a9.49,9.49,0,0,0,5.66,8.68C266.07,395.66,267,395.8,267,395.92Z" style="fill:#455a64"></path><path d="M298.32,443.89a1.83,1.83,0,0,1,.38-.21l1.16-.56L304.3,441c3.85-1.88,9.44-4.57,16.18-8.22a123.75,123.75,0,0,0,22.32-14.85,66,66,0,0,0,10.68-11.63,25.84,25.84,0,0,0,3.87-16.13,25.35,25.35,0,0,0-2.13-8.26,21.38,21.38,0,0,0-2.07-3.64,28.81,28.81,0,0,0-2.64-3.17,70.73,70.73,0,0,0-6-5.42,18.14,18.14,0,0,0-6.55-3.91,24.28,24.28,0,0,0-7.25-.8,37.37,37.37,0,0,0-6.89.76,42.11,42.11,0,0,0-11.63,4.39l-15.87,8.8L292,381.28l-1.13.6a2.2,2.2,0,0,1-.39.19l.36-.23,1.11-.66,4.28-2.46c3.72-2.11,9.09-5.22,15.79-8.94a41.89,41.89,0,0,1,11.72-4.49,37.26,37.26,0,0,1,7-.8,24.53,24.53,0,0,1,7.4.8,18.67,18.67,0,0,1,6.73,4,71.06,71.06,0,0,1,6.05,5.44,29.91,29.91,0,0,1,2.69,3.23,22.39,22.39,0,0,1,2.13,3.72,26.61,26.61,0,0,1-1.79,24.89,66.45,66.45,0,0,1-10.79,11.71,122.19,122.19,0,0,1-22.47,14.82c-6.77,3.6-12.38,6.25-16.26,8.07l-4.49,2.06-1.18.51A1.92,1.92,0,0,1,298.32,443.89Z" style="fill:#455a64"></path><path d="M208.5,442.83S153.92,457.22,151.73,458c-3.29,1.11-2.89,13.12,2.21,13,2.42-.06,41.76,2,46.74,1.73s18.43-5.37,18.43-5.37Z" style="fill:#DC9B9B"></path><path d="M185.59,463.31c-.28,0-.61-2.85-2.33-5.87s-4-4.84-3.78-5.06,2.78,1.36,4.58,4.61S185.81,463.33,185.59,463.31Z" style="fill:#263238"></path><path d="M191.29,460.81c-.27,0-.79-2.54-2.2-5.4s-3.1-4.87-2.9-5.05,2.25,1.63,3.72,4.65S191.52,460.8,191.29,460.81Z" style="fill:#263238"></path><path d="M196.63,459.45c-.28,0,0-2.74-1.2-5.77s-3.1-4.92-2.9-5.12,2.53,1.51,3.75,4.8S196.85,459.53,196.63,459.45Z" style="fill:#263238"></path><path d="M195.75,452.41c-.1,0-.56-1.5-.54-4.06a19.31,19.31,0,0,1,1.45-6.94,3,3,0,0,1,.89-1.32,1.47,1.47,0,0,1,1.87.11,2.43,2.43,0,0,1,.7,1.55,10.05,10.05,0,0,1,0,1.44,11.86,11.86,0,0,1-.36,2.66,16.53,16.53,0,0,1-1.73,4.14,11.23,11.23,0,0,1-2.48,3.24c-.13-.09.8-1.34,1.91-3.55a17.56,17.56,0,0,0,1.48-4,11.62,11.62,0,0,0,.29-2.48c0-.83,0-1.88-.47-2.29a.54.54,0,0,0-.72-.07,2.44,2.44,0,0,0-.61.95,20.83,20.83,0,0,0-.85,2.39,21.64,21.64,0,0,0-.77,4.24C195.67,450.85,195.9,452.39,195.75,452.41Z" style="fill:#263238"></path><path d="M195.82,451.86a7.63,7.63,0,0,1,3.52-.53,16.52,16.52,0,0,1,3.85.52,8.7,8.7,0,0,1,2.21.85,2.3,2.3,0,0,1,1.2,2.5,2.71,2.71,0,0,1-2,1.92,5,5,0,0,1-2.44,0,11.74,11.74,0,0,1-6-4.3,24.23,24.23,0,0,1,2.87,2,9.58,9.58,0,0,0,3.32,1.48,4.18,4.18,0,0,0,2,0,1.85,1.85,0,0,0,1.34-1.28,1.4,1.4,0,0,0-.79-1.52,8.41,8.41,0,0,0-2-.8,18.31,18.31,0,0,0-3.66-.68C197.18,451.8,195.84,452,195.82,451.86Z" style="fill:#263238"></path><path d="M177.22,463.79c-.27,0,0-2.36-1-4.92s-2.78-4.09-2.61-4.29,2.35,1.09,3.46,3.95S177.44,463.89,177.22,463.79Z" style="fill:#263238"></path><path d="M215.14,466.77a11.5,11.5,0,0,1-2.11,1,46,46,0,0,1-6.08,1.8,86,86,0,0,1-20.79,1.71c-8.15-.19-15.49-.65-20.81-.93l-6.3-.41a10.77,10.77,0,0,1-2.31-.28,12.05,12.05,0,0,1,2.32-.07l6.31.12,20.81.66a97.11,97.11,0,0,0,20.64-1.43C212,467.9,215.08,466.6,215.14,466.77Z" style="fill:#263238"></path><path d="M216.74,468c-.08.12-1.56-.77-4.06-1.9a18.9,18.9,0,0,0-10.27-1.84c-4.1.58-7,3.3-9,5.18a32.61,32.61,0,0,1-3.17,3.17A16.24,16.24,0,0,1,193,469a21.7,21.7,0,0,1,3.65-3.33,12.94,12.94,0,0,1,5.65-2.31A18,18,0,0,1,213,465.55,14.68,14.68,0,0,1,216.74,468Z" style="fill:#263238"></path><path d="M162.14,469.7c-.1-.06.38-.78.82-2a10,10,0,0,0-1.68-9.77c-.84-1-1.52-1.56-1.45-1.65s.85.29,1.84,1.3a9.29,9.29,0,0,1,1.78,10.31C162.85,469.14,162.21,469.76,162.14,469.7Z" style="fill:#263238"></path><path d="M311.38,315.91,324.14,293l17.25-88.57c-6.47-18.06,17.36-28.13,17.36-28.13.7.32,18.66,11.51,18,28.91s-14,84.4-14,84.4-3.64,18.24-8.37,24.89c-3.14,4.43-15.59,16-23.59,23.26a18.31,18.31,0,0,1-16,4.39h0Z" style="fill:#DC9B9B"></path><path d="M345.8,282.73c0,.09-1.8.07-4.64.52A28.25,28.25,0,0,0,330.67,287a22.24,22.24,0,0,0-7.67,8,33.5,33.5,0,0,0-1.84,4.28,4.77,4.77,0,0,1,.24-1.24,17.19,17.19,0,0,1,1.27-3.21,21.41,21.41,0,0,1,7.72-8.26,27,27,0,0,1,10.71-3.71,26.12,26.12,0,0,1,3.44-.22A5.48,5.48,0,0,1,345.8,282.73Z" style="fill:#263238"></path><path d="M339.07,218.71a3.3,3.3,0,0,1-.07.76c-.07.55-.17,1.27-.3,2.17-.27,1.89-.73,4.6-1.35,8-1.22,6.69-3.19,15.88-5.45,26s-4.29,19.3-5.59,26c-.66,3.34-1.14,6-1.46,7.92-.16.89-.28,1.61-.37,2.15a5,5,0,0,1-.17.75,3.6,3.6,0,0,1,.06-.76c.07-.55.16-1.27.28-2.18.26-1.88.69-4.6,1.3-7.95,1.2-6.69,3.18-15.88,5.44-26s4.28-19.3,5.6-26c.67-3.34,1.18-6,1.51-7.91.17-.9.3-1.61.4-2.15A7.34,7.34,0,0,1,339.07,218.71Z" style="fill:#263238"></path><path d="M358.16,176.6c0,.1-1.64.83-4.09,2.44A35,35,0,0,0,350,182.2a38.53,38.53,0,0,0-4.26,4.62,38,38,0,0,0-3.37,5.32,35.25,35.25,0,0,0-2,4.74c-.93,2.78-1.2,4.59-1.31,4.57a6.56,6.56,0,0,1,.15-1.27c.06-.42.15-.91.29-1.48s.28-1.24.52-1.94a33.28,33.28,0,0,1,1.92-4.84,35.67,35.67,0,0,1,3.38-5.41,36.65,36.65,0,0,1,4.36-4.67,32.46,32.46,0,0,1,4.18-3.11c.62-.41,1.22-.71,1.74-1a12.82,12.82,0,0,1,1.35-.67A6.56,6.56,0,0,1,358.16,176.6Z" style="fill:#263238"></path><path d="M254.44,291.16c-.37-4.55-3.51-8.31-5.87-12.21a48,48,0,0,0-3.94-6.25,9,9,0,0,0-6.25-3.54,8,8,0,0,0-6.92,4.22,15.66,15.66,0,0,0-1.71,8.24c.08,3,.8,6.24,3.23,7.94,1.91,1.34,4.41,1.38,6.75,1.37l14.31-.07" style="fill:#DC9B9B"></path><path d="M256.9,291.16c.37-4.55,3.51-8.31,5.87-12.21a49.1,49.1,0,0,1,3.94-6.25,9,9,0,0,1,6.25-3.54,8,8,0,0,1,6.92,4.22,15.47,15.47,0,0,1,1.71,8.24c-.08,3-.8,6.24-3.22,7.94-1.92,1.34-4.42,1.38-6.76,1.37l-14.31-.07" style="fill:#DC9B9B"></path><path d="M251.19,290.32a6.64,6.64,0,0,1,2.45-6.07,5.05,5.05,0,0,1,6.3.26c1.33,1.28,1.7,3.23,2,5.05.09.48.17,1,.25,1.44" style="fill:#DC9B9B"></path><g style="opacity:0.30000000000000004"><path d="M254.44,291.16c-.37-4.55-3.51-8.31-5.87-12.21a48,48,0,0,0-3.94-6.25,9,9,0,0,0-6.25-3.54,8,8,0,0,0-6.92,4.22,15.66,15.66,0,0,0-1.71,8.24c.08,3,.8,6.24,3.23,7.94,1.91,1.34,4.41,1.38,6.75,1.37l14.31-.07"></path><path d="M256.9,291.16c.37-4.55,3.51-8.31,5.87-12.21a49.1,49.1,0,0,1,3.94-6.25,9,9,0,0,1,6.25-3.54,8,8,0,0,1,6.92,4.22,15.47,15.47,0,0,1,1.71,8.24c-.08,3-.8,6.24-3.22,7.94-1.92,1.34-4.42,1.38-6.76,1.37l-14.31-.07"></path><path d="M251.19,290.32a6.64,6.64,0,0,1,2.45-6.07,5.05,5.05,0,0,1,6.3.26c1.33,1.28,1.7,3.23,2,5.05.09.48.17,1,.25,1.44"></path></g><path d="M262.55,290.4a2.55,2.55,0,0,1-.22-.79c-.11-.51-.21-1.27-.43-2.15a5.16,5.16,0,0,0-1.55-2.69,4.83,4.83,0,0,0-3.51-1.21,5.31,5.31,0,0,0-3.39,1.59,9.2,9.2,0,0,0-1,1.35,10,10,0,0,0-.76,1.29,5.88,5.88,0,0,0-.47,2.09,2.68,2.68,0,0,1-.1.8,2.3,2.3,0,0,1-.1-.81,5.26,5.26,0,0,1,.33-2.23,9.17,9.17,0,0,1,.73-1.37,8.89,8.89,0,0,1,1.06-1.45,5.61,5.61,0,0,1,3.71-1.77,5.16,5.16,0,0,1,5.44,4.32,18.82,18.82,0,0,1,.28,2.21A2.61,2.61,0,0,1,262.55,290.4Z" style="fill:#263238"></path><path d="M254.07,290.61c-.11-.11,1.17-1.47,2.45-3.37s2.09-3.59,2.24-3.53a10.13,10.13,0,0,1-1.81,3.82A9.78,9.78,0,0,1,254.07,290.61Z" style="fill:#263238"></path><path d="M270.49,278.83a47.15,47.15,0,0,1-4.2,4,48.42,48.42,0,0,1-4.34,3.91,24.86,24.86,0,0,1,4-4.29A25.34,25.34,0,0,1,270.49,278.83Z" style="fill:#263238"></path><path d="M273.15,286.19a29.79,29.79,0,0,1-5.45,1.22,30.94,30.94,0,0,1-5.55.71,29.32,29.32,0,0,1,5.46-1.22A30.59,30.59,0,0,1,273.15,286.19Z" style="fill:#263238"></path><path d="M240,276.92a6,6,0,0,1,1.82,1.41,51.86,51.86,0,0,1,3.57,4.23,47.78,47.78,0,0,0,3.82,3.94,7.31,7.31,0,0,1,1.49,1.75,16.27,16.27,0,0,1-1.74-1.48,31.14,31.14,0,0,1-4-3.88c-1.37-1.69-2.49-3.27-3.43-4.31S240,277,240,276.92Z" style="fill:#263238"></path><path d="M250.44,289.72a3.9,3.9,0,0,1-1.77,0,15.35,15.35,0,0,1-4.1-1.12,34.24,34.24,0,0,1-3.77-1.9,6.55,6.55,0,0,1-1.47-1,5.43,5.43,0,0,1,1.64.64c1,.45,2.3,1.12,3.8,1.75a21.48,21.48,0,0,0,4,1.23A11.63,11.63,0,0,1,250.44,289.72Z" style="fill:#263238"></path><polygon points="202.66 290.25 202.66 331.67 304.34 331.67 304.34 291.38 202.66 290.25" style="fill:#DC9B9B"></polygon><path d="M185.77,334.63l4.06-6.77-.68-7.09a6.12,6.12,0,0,1,1.63-4.77l6.14-6.53,8.79-3a.87.87,0,0,1,1.14.65c.27,1.63-.2,4.34-3.53,6.83a23.33,23.33,0,0,0-5.59,6.12s7.2-6.05,9.47-4.29,2.4,3.38,1.45,4.6-6.39,8.13-6.39,8.13l4,3.8,7.16-2.34,3.07-.73s7.36.17,5.79,5.12c0,0,7.62-2.43,9-2.54,2.11-.18,7.4-.7,6.65,2a6,6,0,0,1-3.7,3.72s3.39,1.08,1.36,4.06a8.9,8.9,0,0,1-4.83,3.63l-12,4.8a6.46,6.46,0,0,1-4.58.09l-3.79-1.34L203,352.1S187.93,347.76,185.77,334.63Z" style="fill:#a36957"></path><path d="M192.64,325.14s.5-.41,1.36-1.19,2-2,3.5-3.48a31.58,31.58,0,0,1,2.56-2.28,16.2,16.2,0,0,1,3.3-2.2,5.73,5.73,0,0,1,2.12-.55,4.06,4.06,0,0,1,1.15.09,2.38,2.38,0,0,1,.59.19,3.94,3.94,0,0,1,1.39,1.18,2.06,2.06,0,0,1,.21.6l.16.55a2.23,2.23,0,0,1,.11,1.3,9.65,9.65,0,0,1-.4,1.14,17.54,17.54,0,0,1-2.54,4,33,33,0,0,1-2.93,3.23,20.08,20.08,0,0,1-6,4.31,5.91,5.91,0,0,1-4.91-.07,3.81,3.81,0,0,1-1.09-.82,1.23,1.23,0,0,1-.28-.38,6,6,0,0,0,1.46,1,5.82,5.82,0,0,0,4.68-.09,20.79,20.79,0,0,0,5.77-4.31,36,36,0,0,0,2.86-3.2,17.65,17.65,0,0,0,2.46-3.85,8.8,8.8,0,0,0,.38-1.09,1.81,1.81,0,0,0-.11-1l-.16-.56a1.6,1.6,0,0,0-.15-.48,3.12,3.12,0,0,0-.73-.72q-.23-.15-.45-.27a1.86,1.86,0,0,0-.47-.15,3.8,3.8,0,0,0-1-.09,5.45,5.45,0,0,0-1.95.5,16.19,16.19,0,0,0-3.23,2.1c-1,.76-1.83,1.48-2.58,2.2-1.5,1.44-2.7,2.65-3.62,3.37a11,11,0,0,1-1.08.81C192.79,325.08,192.65,325.16,192.64,325.14Z" style="fill:#7c3b29"></path><path d="M197.88,320.35a17.27,17.27,0,0,1-6,0,17.27,17.27,0,0,1,6,0Z" style="fill:#7c3b29"></path><path d="M202.66,307.63c0,.06-.75.22-2,.62-.6.2-1.32.43-2.1.72a12.32,12.32,0,0,0-1.19.48,5.36,5.36,0,0,0-1.06.83c-1.34,1.38-2.6,2.64-3.49,3.53a11.32,11.32,0,0,0-1.23,1.6,3.16,3.16,0,0,1,1-1.85c.85-1,2-2.24,3.4-3.65a5.35,5.35,0,0,1,1.18-.9,10.38,10.38,0,0,1,1.27-.5c.81-.26,1.54-.46,2.16-.61A4.68,4.68,0,0,1,202.66,307.63Z" style="fill:#7c3b29"></path><path d="M201.54,334.52a2.14,2.14,0,0,1,.53-.26l1.57-.67,5.8-2.35c1.23-.48,2.57-1.05,4.08-1.48a11.45,11.45,0,0,1,5-.43,7.46,7.46,0,0,1,2.6.93,3.34,3.34,0,0,1,1.77,2.32,3.19,3.19,0,0,1-1.29,2.74,10.26,10.26,0,0,1-2.72,1.38l-10.59,4.14a32.34,32.34,0,0,1-4.74,1.56,9.69,9.69,0,0,1-4.38,0,4.5,4.5,0,0,1-2.89-2.13,6.66,6.66,0,0,1-.76-2.62,13.67,13.67,0,0,1-.05-1.71,3,3,0,0,1,.06-.59c.05,0,0,.82.19,2.28a6.74,6.74,0,0,0,.81,2.49,4.19,4.19,0,0,0,2.73,1.92,9.38,9.38,0,0,0,4.2-.1,32,32,0,0,0,4.65-1.59l10.58-4.18a9.89,9.89,0,0,0,2.58-1.29,2.71,2.71,0,0,0,1.12-2.28,2.89,2.89,0,0,0-1.53-1.95,6.94,6.94,0,0,0-2.42-.89,11.1,11.1,0,0,0-4.8.37c-1.49.41-2.83.95-4.06,1.42l-5.87,2.19-1.6.57A2.34,2.34,0,0,1,201.54,334.52Z" style="fill:#7c3b29"></path><path d="M222.48,334.46a3,3,0,0,1,.51-.24l1.5-.6a36.43,36.43,0,0,1,5.69-1.77,18.19,18.19,0,0,1,4.11-.38,11.91,11.91,0,0,1,2.32.25,2.21,2.21,0,0,1,1.13.67,2,2,0,0,1,.44,1.29,3.15,3.15,0,0,1-1.17,2.39,16,16,0,0,1-2.23,1.52,40,40,0,0,1-5,2.48,98.46,98.46,0,0,1-10.27,3.36l-4.52,1.3a38.62,38.62,0,0,1-4,1,7.61,7.61,0,0,1-3.42-.11,5,5,0,0,1-2.21-1.34,3.39,3.39,0,0,1-.82-1.42,1.7,1.7,0,0,1-.08-.56,4.08,4.08,0,0,0,1,1.83,4.68,4.68,0,0,0,2.14,1.21,7.36,7.36,0,0,0,3.28,0c1.21-.22,2.52-.66,3.93-1.07l4.51-1.35c3.17-1,6.68-1.94,10.2-3.38a40.39,40.39,0,0,0,5-2.44,14.17,14.17,0,0,0,2.15-1.45,2.61,2.61,0,0,0,1-2,1.5,1.5,0,0,0-1.21-1.53,11.9,11.9,0,0,0-2.21-.26,17.74,17.74,0,0,0-4,.31,43.21,43.21,0,0,0-5.69,1.6l-1.53.51A2,2,0,0,1,222.48,334.46Z" style="fill:#7c3b29"></path><path d="M308.27,303.52l1.3,3c1.4,2.34,5.15,9.21,5.15,9.21s6.72-.47,10.15,6.88-7,18.27-7,18.27-15.63,11.72-19.38,12.5-9.37-2.81-10-3-21.72-13.59-21.83-15.49a4,4,0,0,1,2.28-4.08l23.92-1.36,11.37-8.91-.62-8.17L293,303s-1.91-4.29,0-4.87S308.27,303.52,308.27,303.52Z" style="fill:#ffbe9d"></path><path d="M308.92,329.67a9.46,9.46,0,0,1-1.29,1L304,333.07c-1.55,1-3.32,2.23-5.43,3.57a4.23,4.23,0,0,1-1.93.28c-.64,0-1.29,0-1.94.08-1.32.07-2.69.18-4.09.3a71.24,71.24,0,0,1-7.93.35,8,8,0,0,1-3.45-.75,3,3,0,0,1-1.77-2.51,3.57,3.57,0,0,1,.83-2.41,4.65,4.65,0,0,1,1.49-1.19,5.94,5.94,0,0,1,1.11-.45c.27-.08.41-.11.41-.09s-.54.2-1.42.72a5,5,0,0,0-1.37,1.19,3.32,3.32,0,0,0-.68,2.21,2.66,2.66,0,0,0,1.6,2.15,7.84,7.84,0,0,0,3.26.65c2.42,0,5.08-.15,7.88-.39,1.4-.12,2.77-.23,4.1-.29.66,0,1.32-.06,2-.06a3.94,3.94,0,0,0,1.73-.22l5.44-3.45,3.7-2.3A9,9,0,0,1,308.92,329.67Z" style="fill:#eb996e"></path><path d="M309.72,341.19a2.45,2.45,0,0,1-.47.13l-1.37.28-5.06,1-7.5,1.34-4.44.78c-.77.12-1.54.29-2.37.37a4.07,4.07,0,0,1-2.52-.49c-.75-.44-1.37-1-2-1.42s-1.32-.89-2-1.3a26.15,26.15,0,0,0-4-2c-1.31-.54-2.64-.86-3.84-1.37a10.94,10.94,0,0,1-3-2c-.81-.74-1.5-1.43-2.1-2.07a3.18,3.18,0,0,1-.95-2,1.85,1.85,0,0,1,.5-1.33.83.83,0,0,1,.43-.25,4.4,4.4,0,0,0-.35.32,1.8,1.8,0,0,0-.38,1.26c0,1.23,1.52,2.4,3.09,3.83a10.51,10.51,0,0,0,2.94,1.84c1.17.48,2.5.78,3.86,1.32a27,27,0,0,1,4.05,2c.67.41,1.34.86,2,1.32s1.32,1,2,1.38c1.36.85,3,.29,4.54.07l4.45-.74,7.52-1.24,5.08-.79,1.39-.18A1.52,1.52,0,0,1,309.72,341.19Z" style="fill:#eb996e"></path><path d="M303.19,348.64a8.33,8.33,0,0,1-2.16.65,49.8,49.8,0,0,1-5.35.9,44.14,44.14,0,0,1-5.43.29,3.3,3.3,0,0,1-2.18-.61,9.33,9.33,0,0,0,2.18.24c1.37-.06,3.28-.21,5.37-.44s4-.52,5.34-.74A11.67,11.67,0,0,1,303.19,348.64Z" style="fill:#eb996e"></path><path d="M304.34,291.38l-.26,0-.77,0-3,.05c-2.57,0-6.29,0-10.89,0-9.21,0-21.92-.18-35.95-.42l-35.95-.58-10.89-.14-3-.06-.77,0-.27,0,.27,0,.77,0,3,0c2.57,0,6.29,0,10.89,0,9.21,0,21.92.18,36,.43l35.94.57,10.89.14,3,.06.77,0Z" style="fill:#263238"></path><path d="M216.72,306.47l.09.14c.1.15,1.16,1.73,1.13,1.74a3.38,3.38,0,0,0,.93-.58s-.66-1-1.19-1.87l-.48.29Z" style="fill:#fafafa"></path><path d="M220.38,303a.64.64,0,0,0-.26-.13l-1.92-.67a24,24,0,0,1-2.46,1.72c-.89.53-1.7,1.08-2.62,1.54-.07.67-.13,1.38-.19,2.12,0,.28.19.45.4.37a18.69,18.69,0,0,0,3.22-1.72l.48-.29.48-.28a32.14,32.14,0,0,0,2.91-2.21A.3.3,0,0,0,220.38,303Z" style="fill:#fafafa"></path><path d="M218,301.8l.58-.44a.22.22,0,0,0,0-.34.41.41,0,0,0-.2-.09l-2.52-.62a13.8,13.8,0,0,1-1.65,1.15c-.6.36-1.15.73-1.76,1-.15.83-.3,1.69-.5,2.63,0,.2.14.3.32.22s.42-.19.63-.29c.92-.46,1.73-1,2.62-1.54A22.53,22.53,0,0,0,218,301.8Z" style="fill:#fafafa"></path><path d="M214.07,301.17a14.3,14.3,0,0,0,1.65-1.16l.66-.52a.2.2,0,0,0,0-.29.4.4,0,0,0-.16-.08l-2.3-.74-1-.33-.45-.14c-.06,0-.39-.17-.44-.14a.17.17,0,0,0-.22.14c-.23,1.4-.31,2.81-.54,4.44a.19.19,0,0,0,.27.2,6.27,6.27,0,0,0,.74-.35C212.92,301.89,213.47,301.52,214.07,301.17Z" style="fill:#fafafa"></path><path d="M211,296.29h0l.4.25.07,0h.06l.39-.2a0,0,0,0,1,.07,0,.06.06,0,0,1,0,.07c0,.16-.07.33-.11.49v0l0,0,.29.28s.06.07,0,.1-.07,0-.12,0l-.39,0a.11.11,0,0,0-.08,0,.19.19,0,0,0-.08.11,2.31,2.31,0,0,1-.18.35s0,0,0,0,0,0-.05,0l-.19-.44a.08.08,0,0,0,0,0l0,0-.47-.09s0,0-.05,0a.07.07,0,0,1,0-.08l.34-.27s.05-.05.06-.08a.34.34,0,0,0,0-.1c0-.13,0-.26-.07-.4s0-.06,0-.07A0,0,0,0,1,211,296.29Z" style="fill:#fafafa"></path><path d="M286.6,307.82l.09.14c.1.14,1.15,1.72,1.13,1.74a3.38,3.38,0,0,0,.93-.58s-.66-1-1.19-1.87l-.48.29Z" style="fill:#fafafa"></path><path d="M290.26,304.32a.82.82,0,0,0-.26-.14l-1.92-.67a24.24,24.24,0,0,1-2.46,1.73c-.89.52-1.7,1.07-2.62,1.53-.07.68-.13,1.38-.19,2.13,0,.28.19.45.4.37a18.69,18.69,0,0,0,3.22-1.72l.48-.29.48-.29a30.35,30.35,0,0,0,2.91-2.21A.3.3,0,0,0,290.26,304.32Z" style="fill:#fafafa"></path><path d="M287.91,303.15l.58-.45a.22.22,0,0,0,0-.34.6.6,0,0,0-.2-.08l-2.52-.62a13.8,13.8,0,0,1-1.65,1.15c-.6.35-1.15.72-1.76,1-.15.83-.3,1.69-.5,2.62,0,.21.14.31.32.23s.42-.19.63-.29c.92-.46,1.73-1,2.62-1.54A22.53,22.53,0,0,0,287.91,303.15Z" style="fill:#fafafa"></path><path d="M284,302.51a13.8,13.8,0,0,0,1.65-1.15l.66-.52a.2.2,0,0,0,0-.29.4.4,0,0,0-.16-.08l-2.3-.75-1-.32-.44-.14a2.29,2.29,0,0,0-.44-.15.17.17,0,0,0-.22.15c-.23,1.4-.32,2.8-.54,4.43a.19.19,0,0,0,.27.21c.26-.11.5-.22.74-.35C282.8,303.23,283.35,302.87,284,302.51Z" style="fill:#fafafa"></path><path d="M280.88,297.63l0,0,.4.24a.11.11,0,0,0,.07,0l.06,0,.39-.2s.05,0,.07,0,0,0,0,.07l-.11.49v.05l0,0,.28.28s.07.06.06.1-.07,0-.12,0l-.39,0-.08,0a.28.28,0,0,0-.08.11,2.42,2.42,0,0,1-.18.36s0,0,0,0,0,0,0-.05l-.19-.44a.05.05,0,0,0,0,0l0,0-.47-.1-.05,0a.07.07,0,0,1,0-.08l.34-.28s.05,0,.06-.07a.33.33,0,0,0,0-.1l-.07-.4a.11.11,0,0,1,0-.08Z" style="fill:#fafafa"></path><path d="M269.61,325.29l.09.14c.1.14,1.15,1.72,1.13,1.74a3.38,3.38,0,0,0,.93-.58s-.66-1-1.19-1.87l-.48.29Z" style="fill:#fafafa"></path><path d="M273.27,321.79a.64.64,0,0,0-.26-.13l-1.93-.68a23.14,23.14,0,0,1-2.45,1.73c-.89.52-1.7,1.07-2.62,1.53-.07.68-.13,1.38-.19,2.13,0,.28.19.45.4.37a18.69,18.69,0,0,0,3.22-1.72l.48-.29.48-.29a30.35,30.35,0,0,0,2.91-2.21A.3.3,0,0,0,273.27,321.79Z" style="fill:#fafafa"></path><path d="M270.91,320.62l.58-.45a.21.21,0,0,0,0-.33.46.46,0,0,0-.2-.09l-2.52-.62a13.8,13.8,0,0,1-1.65,1.15c-.6.35-1.16.72-1.76,1-.15.83-.3,1.69-.5,2.62,0,.21.13.31.32.23l.62-.29c.93-.46,1.74-1,2.63-1.54A21.57,21.57,0,0,0,270.91,320.62Z" style="fill:#fafafa"></path><path d="M267,320a13.8,13.8,0,0,0,1.65-1.15l.66-.52a.2.2,0,0,0,0-.29.6.6,0,0,0-.16-.08l-2.3-.75-1-.32-.45-.14a2,2,0,0,0-.43-.15.17.17,0,0,0-.22.15c-.23,1.4-.32,2.8-.54,4.43a.19.19,0,0,0,.27.21c.26-.11.5-.22.74-.35C265.81,320.7,266.36,320.34,267,320Z" style="fill:#fafafa"></path><path d="M263.89,315.11h0l.4.25.07,0,.06,0,.39-.2s.05,0,.07,0,0,0,0,.07-.07.32-.11.49c0,0,0,0,0,0s0,0,0,0l.28.28s.07.06.06.1-.08,0-.12,0l-.39,0h-.09a.26.26,0,0,0-.07.11,2.47,2.47,0,0,1-.19.36l0,0s-.05,0-.06,0l-.18-.44s0,0,0,0l0,0-.47-.1-.05,0a.07.07,0,0,1,0-.08l.33-.28a.16.16,0,0,0,.07-.07.34.34,0,0,0,0-.1l-.07-.4a.06.06,0,0,1,0-.08Z" style="fill:#fafafa"></path><path d="M289.4,323a.57.57,0,0,0-.11.11c-.13.12-1.47,1.47-1.49,1.45a3.66,3.66,0,0,0,.75.8,20.82,20.82,0,0,1,1.6-1.53l-.37-.42C289.65,323.28,289.53,323.14,289.4,323Z" style="fill:#fafafa"></path><path d="M293.55,325.92a.74.74,0,0,0,.08-.29c.1-.7.2-1.37.29-2a21,21,0,0,1-2.17-2.07c-.69-.77-1.39-1.46-2-2.27-.67.06-1.38.14-2.12.23-.28,0-.4.27-.28.46a18.75,18.75,0,0,0,2.31,2.83c.13.13.25.27.37.41l.38.42a30.49,30.49,0,0,0,2.73,2.42A.3.3,0,0,0,293.55,325.92Z" style="fill:#fafafa"></path><path d="M294.24,323.37l.55.49a.23.23,0,0,0,.34,0,.49.49,0,0,0,0-.21c0-.92.08-1.78.12-2.6a13.92,13.92,0,0,1-1.45-1.39c-.46-.53-.93-1-1.36-1.53-.84,0-1.72,0-2.67,0-.21,0-.28.2-.16.36s.26.38.4.56c.63.81,1.33,1.5,2,2.27A22,22,0,0,0,294.24,323.37Z" style="fill:#fafafa"></path><path d="M294.09,319.37a13.06,13.06,0,0,0,1.46,1.39l.64.55a.19.19,0,0,0,.28-.05.48.48,0,0,0,0-.17c.1-.84.19-1.64.28-2.4l.13-1c0-.16,0-.31.05-.47a1.86,1.86,0,0,0,.06-.45.18.18,0,0,0-.19-.19c-1.42.05-2.81.24-4.45.33a.2.2,0,0,0-.15.31,8,8,0,0,0,.48.66C293.16,318.38,293.63,318.85,294.09,319.37Z" style="fill:#fafafa"></path><path d="M298.28,315.41a0,0,0,0,1,0,0c0,.15-.11.3-.16.44a.11.11,0,0,0,0,.08s0,0,0,.05l.27.34a.11.11,0,0,1,0,.08s0,0-.07,0h-.55a0,0,0,0,0,0,0l-.22.34s-.05.07-.09.07,0-.07-.06-.11-.07-.25-.1-.38a.2.2,0,0,0,0-.08.26.26,0,0,0-.12-.05l-.39-.11,0,0a0,0,0,0,1,0-.06l.4-.27,0,0a.09.09,0,0,0,0,0c0-.16,0-.32,0-.48a.13.13,0,0,1,0-.06.08.08,0,0,1,.08,0l.34.27.09,0,.1,0,.37-.14s.06,0,.08,0A.06.06,0,0,1,298.28,315.41Z" style="fill:#fafafa"></path><path d="M227.75,322.56l-.08.15c-.07.16-.91,1.87-.93,1.86a3.21,3.21,0,0,0,1,.5,21.87,21.87,0,0,1,1-2l-.5-.26Z" style="fill:#fafafa"></path><path d="M232.62,324a.72.72,0,0,0,0-.29c-.13-.7-.26-1.36-.39-2a22.87,22.87,0,0,1-2.72-1.25c-.91-.51-1.79-.93-2.65-1.5l-1.94.91a.31.31,0,0,0-.11.53,18,18,0,0,0,3.11,1.92l.49.27.49.27a30.1,30.1,0,0,0,3.37,1.4A.3.3,0,0,0,232.62,324Z" style="fill:#fafafa"></path><path d="M232.44,321.34l.68.28a.22.22,0,0,0,.3-.15.42.42,0,0,0,0-.22c-.1-.34-.2-.68-.29-1a3.26,3.26,0,0,0-1.68-2l-.59-.31-.49-.27a3.31,3.31,0,0,0-2.7-.21l-1.11.38c-.19.06-.19.27,0,.39l.56.39c.87.57,1.75,1,2.66,1.5A24.58,24.58,0,0,0,232.44,321.34Z" style="fill:#fafafa"></path><path d="M231,317.6a13,13,0,0,0,1.83.84l.78.31a.19.19,0,0,0,.25-.13.55.55,0,0,0,0-.18l-.51-2.37c-.08-.34-.15-.68-.22-1l-.1-.46c0-.06-.05-.42-.1-.45a.18.18,0,0,0-.24-.12c-1.32.51-2.58,1.14-4.1,1.77a.19.19,0,0,0,0,.34c.22.17.45.32.67.46C229.79,317,230.39,317.26,231,317.6Z" style="fill:#fafafa"></path><path d="M233.67,312.49v0c0,.16,0,.32,0,.47a.19.19,0,0,0,0,.08l0,0,.37.23s0,0,0,.07,0,0-.06,0l-.48.15s0,0,0,0a.08.08,0,0,0,0,0c0,.13-.07.26-.1.39s0,.09-.06.1-.07-.05-.1-.09l-.21-.32s0-.05-.06-.06a.22.22,0,0,0-.14,0,1.76,1.76,0,0,1-.4,0h0s0-.05,0-.07l.28-.38,0,0a.43.43,0,0,0,0-.05l-.16-.46s0,0,0-.06.06,0,.09,0l.41.15.09,0a.26.26,0,0,0,.09-.05l.31-.26s.05,0,.07,0S233.66,312.48,233.67,312.49Z" style="fill:#fafafa"></path><path d="M245.36,306.78l-.07.15c-.08.15-.91,1.86-.93,1.85a3.34,3.34,0,0,0,1,.51,21.87,21.87,0,0,1,1-2l-.49-.27Z" style="fill:#fafafa"></path><path d="M250.23,308.18a.93.93,0,0,0,0-.29q-.21-1-.39-2a21.57,21.57,0,0,1-2.73-1.25c-.9-.5-1.79-.93-2.65-1.49-.61.28-1.26.58-1.93.91a.31.31,0,0,0-.11.53,19,19,0,0,0,3.1,1.92,4.67,4.67,0,0,1,.49.27l.49.27a32.84,32.84,0,0,0,3.38,1.39C250,308.49,250.19,308.36,250.23,308.18Z" style="fill:#fafafa"></path><path d="M250.06,305.55l.67.28a.23.23,0,0,0,.31-.15.51.51,0,0,0,0-.21c-.26-.88-.5-1.71-.73-2.5a13.56,13.56,0,0,1-1.83-.84c-.61-.34-1.2-.63-1.78-1-.79.29-1.62.59-2.52.89-.2.07-.2.27,0,.39l.57.4c.86.56,1.75,1,2.65,1.49A20.94,20.94,0,0,0,250.06,305.55Z" style="fill:#fafafa"></path><path d="M248.61,301.82a14.92,14.92,0,0,0,1.83.84l.78.31a.19.19,0,0,0,.25-.14.28.28,0,0,0,0-.18l-.51-2.36c-.07-.35-.15-.68-.22-1,0-.16-.06-.31-.1-.47a1.9,1.9,0,0,0-.09-.44.18.18,0,0,0-.24-.12c-1.33.51-2.58,1.14-4.1,1.77a.18.18,0,0,0,0,.33,7.37,7.37,0,0,0,.67.47C247.41,301.18,248,301.47,248.61,301.82Z" style="fill:#fafafa"></path><path d="M251.28,296.71v0c0,.15,0,.31,0,.47a.15.15,0,0,0,0,.07l.05,0,.37.24a.07.07,0,0,1,0,.06s0,0-.06.05l-.47.15-.05,0s0,0,0,.05-.06.26-.1.38,0,.09,0,.1-.07,0-.1-.08l-.22-.32a.2.2,0,0,0-.06-.07.2.2,0,0,0-.13,0,2.68,2.68,0,0,1-.4,0h0a.06.06,0,0,1,0-.08c.1-.12.19-.25.29-.38a.05.05,0,0,0,0,0,.11.11,0,0,0,0,0l-.15-.45a.06.06,0,0,1,0-.06s.05,0,.08,0l.41.16a.17.17,0,0,0,.1,0l.08-.05.31-.26a.11.11,0,0,1,.08,0A.05.05,0,0,1,251.28,296.71Z" style="fill:#fafafa"></path><g style="opacity:0.30000000000000004"><polygon points="266.87 331.67 246.19 331.67 246.19 290.33 266.87 290.73 266.87 331.67"></polygon></g><path d="M348.38,258.09c.47.14.95.28,1.41.45.75.26,1.47.55,2.22.78.4,1,.85,1.91-.18,2.58s-1.57,0-2.07-.61a2.85,2.85,0,0,1-.37-.72Z" style="fill:#fafafa"></path><path d="M346.25,253.15l1.46.44c.7.22,1.51.36,2.22.61.46,1.09.9,2.18,1.32,3.23-.31-.12-.63-.25-.95-.35-.89-.3-1.8-.53-2.69-.82l-.4-.94C346.9,254.6,346.57,253.87,346.25,253.15Z" style="fill:#fafafa"></path><path d="M344.48,249.61a2.9,2.9,0,0,1,1-.47,4.59,4.59,0,0,1,2.12.14c.52.95,1,2,1.52,3.13l-.63-.17c-1-.3-2-.61-3-.9a7.85,7.85,0,0,0-.68-1.36C344.71,249.85,344.6,249.73,344.48,249.61Z" style="fill:#fafafa"></path><path d="M342,247.93a3.85,3.85,0,0,1,1.24-1.3,3.16,3.16,0,0,1,3.34,1,4.83,4.83,0,0,0-1.35.13,5.08,5.08,0,0,0-2.51,1.56,4,4,0,0,0-1.27.75A3.75,3.75,0,0,1,342,247.93Z" style="fill:#fafafa"></path><path d="M337.92,251.29a6,6,0,0,1,3.22-4.1,4,4,0,0,0-.41.73c-.48,1.07-.8,2.47-.12,3.36,0,.32.23.69.09,1a1.58,1.58,0,0,1-1.95.91A1.68,1.68,0,0,1,337.92,251.29Z" style="fill:#fafafa"></path><path d="M339,300.15c.2-.45.41-.91.64-1.34.36-.71.76-1.38,1.09-2.09,1-.26,2-.57,2.53.54s-.19,1.57-.9,2a2.89,2.89,0,0,1-.77.26Z" style="fill:#fafafa"></path><path d="M333.76,301.56c.21-.46.42-.93.64-1.39.32-.66.56-1.44.91-2.11,1.14-.3,2.29-.58,3.38-.85-.16.29-.33.59-.47.89-.42.84-.78,1.71-1.2,2.55l-1,.26Z" style="fill:#fafafa"></path><path d="M330,302.81a2.69,2.69,0,0,1-.31-1.1,4.55,4.55,0,0,1,.43-2.07c1-.38,2.14-.74,3.32-1.07l-.26.6c-.44,1-.89,1.92-1.32,2.88a7.16,7.16,0,0,0-1.44.48Z" style="fill:#fafafa"></path><path d="M328,305.07a4,4,0,0,1-1.11-1.41,3.17,3.17,0,0,1,1.44-3.17,4.73,4.73,0,0,0-.06,1.36,5.13,5.13,0,0,0,1.19,2.7,4.06,4.06,0,0,0,.56,1.36A3.77,3.77,0,0,1,328,305.07Z" style="fill:#fafafa"></path><path d="M330.74,309.54a6,6,0,0,1-3.6-3.76,4.28,4.28,0,0,0,.66.51c1,.62,2.33,1.14,3.31.58.32.09.71-.12,1,.07a1.57,1.57,0,0,1,.63,2.05A1.66,1.66,0,0,1,330.74,309.54Z" style="fill:#fafafa"></path><path d="M361.32,204.45c-.16-.47-.31-.95-.44-1.42-.21-.77-.38-1.53-.62-2.28.56-.87,1.08-1.78,2.22-1.32s.93,1.28.68,2a3.37,3.37,0,0,1-.38.72Z" style="fill:#fafafa"></path><path d="M358.48,209c-.16-.48-.32-1-.47-1.45-.22-.7-.57-1.44-.77-2.17.63-1,1.28-2,1.9-2.92.07.32.15.65.25,1,.27.9.6,1.79.86,2.68l-.53.86C359.3,207.65,358.89,208.34,358.48,209Z" style="fill:#fafafa"></path><path d="M356.58,212.49a3,3,0,0,1-1-.59,4.55,4.55,0,0,1-1.09-1.82c.48-1,1.06-2,1.7-3,.08.21.15.41.22.62.33,1,.65,2,1,3a7.14,7.14,0,0,0-.73,1.33C356.65,212.16,356.61,212.32,356.58,212.49Z" style="fill:#fafafa"></path><path d="M356.64,215.51a3.78,3.78,0,0,1-1.78-.27,3.19,3.19,0,0,1-1.1-3.3,4.77,4.77,0,0,0,.89,1,5,5,0,0,0,2.71,1.17,3.87,3.87,0,0,0,1.34.62A3.77,3.77,0,0,1,356.64,215.51Z" style="fill:#fafafa"></path><path d="M361.71,216.91a6,6,0,0,1-5.21-.3,3.89,3.89,0,0,0,.83-.08c1.16-.22,2.49-.75,2.83-1.82.29-.15.43-.58.8-.67a1.58,1.58,0,0,1,1.86,1.09A1.66,1.66,0,0,1,361.71,216.91Z" style="fill:#fafafa"></path><path d="M187.94,165s-41.79,39.88-46.72,46.1-6.37,26.19,1.12,33.15c2.14,2,5.38,2.87,8.91,3.12a28.85,28.85,0,0,0,26.35-13.91l20.26-32.94a15.58,15.58,0,0,0,2.29-7.2l.19-3,4.4-5.88-9.25-24.88Z" style="fill:#DC9B9B"></path><path d="M195.49,159.56s5.94-14.31,7.7-14.75,15.64-7.27,15.64-7.27l2.29-2.41a2,2,0,0,1,3.42,1,6,6,0,0,1-1.31,5.42,42.31,42.31,0,0,1-8.37,6.82l10.79-1.23,23,7.59a6.07,6.07,0,0,1,3.87,3.58c.32.85.39,1.68-.23,2.17,0,0,4.4,2.42,2.2,5.51l-2.2,1.32s3.08,1.25,2.21,3.62a3,3,0,0,1-3.77,2.15s.24,5-3.73,4.7-15.85,1.42-15.85,1.42l-26.42,5.28Z" style="fill:#ffbe9d"></path><path d="M252.64,160.71c0,.07-1.31-.46-3.41-1.2a84.08,84.08,0,0,0-8.33-2.5,86.83,86.83,0,0,0-8.55-1.61c-2.21-.3-3.59-.42-3.58-.5a4.11,4.11,0,0,1,1,0c.63,0,1.54.06,2.65.16a62.46,62.46,0,0,1,8.63,1.48,61.66,61.66,0,0,1,8.34,2.65c1,.42,1.87.79,2.43,1.07A3.94,3.94,0,0,1,252.64,160.71Z" style="fill:#eb996e"></path><path d="M252.64,167.4c0,.07-1.17-.34-3-.89a52.41,52.41,0,0,0-7.44-1.63,53.14,53.14,0,0,0-7.6-.52,31.54,31.54,0,0,1-3.17,0,2.48,2.48,0,0,1,.84-.17c.55-.08,1.34-.15,2.32-.2a40.55,40.55,0,0,1,7.68.36,41.12,41.12,0,0,1,7.48,1.8c.93.32,1.67.61,2.17.84S252.65,167.36,252.64,167.4Z" style="fill:#eb996e"></path><path d="M251,173c0,.08-1.23-.19-3.2-.5a75.33,75.33,0,0,0-7.74-.77c-3-.14-5.8-.16-7.8-.18a21.88,21.88,0,0,1-3.24-.14,19.39,19.39,0,0,1,3.23-.23c2-.07,4.77-.11,7.83,0a52.5,52.5,0,0,1,7.79.93c1,.2,1.77.39,2.31.56A2.59,2.59,0,0,1,251,173Z" style="fill:#eb996e"></path><path d="M151.4,224.73c-.47-.15-.94-.3-1.41-.48-.74-.28-1.45-.59-2.2-.83-.37-1-.8-1.93.24-2.58s1.58,0,2.06.66a2.76,2.76,0,0,1,.35.73C150.76,223.05,151.08,223.89,151.4,224.73Z" style="fill:#fafafa"></path><path d="M153.42,229.71l-1.45-.47c-.7-.23-1.5-.39-2.21-.66-.43-1.09-.85-2.2-1.24-3.25.31.13.62.26.93.37.89.31,1.8.56,2.68.88.13.31.25.63.38.94Z" style="fill:#fafafa"></path><path d="M155.11,233.3a2.82,2.82,0,0,1-1.05.44,4.69,4.69,0,0,1-2.11-.19c-.5-1-1-2-1.46-3.16l.63.19c1,.32,2,.65,3,1a7.19,7.19,0,0,0,.64,1.38Z" style="fill:#fafafa"></path><path d="M157.59,235a3.92,3.92,0,0,1-1.26,1.27,3.16,3.16,0,0,1-3.32-1.05,4.55,4.55,0,0,0,1.36-.11,5.1,5.1,0,0,0,2.54-1.5,4,4,0,0,0,1.28-.72A3.74,3.74,0,0,1,157.59,235Z" style="fill:#fafafa"></path><path d="M161.71,231.76a6,6,0,0,1-3.31,4,4.19,4.19,0,0,0,.43-.71c.5-1.07.85-2.46.18-3.36.05-.32-.21-.69-.06-1a1.58,1.58,0,0,1,2-.87A1.67,1.67,0,0,1,161.71,231.76Z" style="fill:#fafafa"></path><path d="M181.74,178.29c-.15-.47-.31-.94-.44-1.42-.21-.76-.38-1.52-.62-2.27.56-.87,1.08-1.78,2.22-1.32s.93,1.27.68,2.05a3.1,3.1,0,0,1-.38.71Z" style="fill:#fafafa"></path><path d="M178.9,182.86c-.16-.48-.32-1-.47-1.45-.22-.71-.57-1.44-.77-2.18.63-1,1.28-2,1.9-2.92.08.33.16.66.25,1,.27.9.6,1.78.87,2.68-.19.29-.37.57-.54.86C179.72,181.5,179.31,182.18,178.9,182.86Z" style="fill:#fafafa"></path><path d="M177,186.33a2.71,2.71,0,0,1-1-.59,4.51,4.51,0,0,1-1.09-1.81c.48-1,1.07-2,1.7-3,.08.2.15.41.22.61l1,3a7.84,7.84,0,0,0-.73,1.33C177.07,186,177,186.17,177,186.33Z" style="fill:#fafafa"></path><path d="M177.06,189.36a4,4,0,0,1-1.77-.27,3.19,3.19,0,0,1-1.11-3.3,4.77,4.77,0,0,0,.89,1,5.12,5.12,0,0,0,2.71,1.17,3.67,3.67,0,0,0,1.34.61A3.71,3.71,0,0,1,177.06,189.36Z" style="fill:#fafafa"></path><path d="M182.13,190.76a6.08,6.08,0,0,1-5.21-.3,4.67,4.67,0,0,0,.83-.08c1.16-.22,2.49-.76,2.83-1.82.29-.16.43-.58.81-.67a1.57,1.57,0,0,1,1.85,1.08A1.66,1.66,0,0,1,182.13,190.76Z" style="fill:#fafafa"></path><path d="M175,216.9c.16.48.32.95.45,1.42.21.77.38,1.53.62,2.28-.56.87-1.08,1.78-2.22,1.32s-.94-1.27-.69-2a3.44,3.44,0,0,1,.39-.72Z" style="fill:#fafafa"></path><path d="M177.85,212.34l.48,1.45c.22.7.57,1.44.77,2.17-.64,1-1.28,2-1.9,2.92-.08-.32-.16-.65-.26-1-.26-.9-.6-1.79-.86-2.68l.54-.86Z" style="fill:#fafafa"></path><path d="M179.76,208.86a2.88,2.88,0,0,1,1,.59,4.55,4.55,0,0,1,1.09,1.82c-.48,1-1.06,2-1.69,3-.08-.21-.16-.41-.22-.62-.33-1-.66-2-1-3a7.14,7.14,0,0,0,.73-1.33Z" style="fill:#fafafa"></path><path d="M179.7,205.84a3.87,3.87,0,0,1,1.77.27,3.18,3.18,0,0,1,1.1,3.3,4.72,4.72,0,0,0-.88-1,5.16,5.16,0,0,0-2.71-1.17,4,4,0,0,0-1.34-.62A3.72,3.72,0,0,1,179.7,205.84Z" style="fill:#fafafa"></path><path d="M174.63,204.44a6,6,0,0,1,5.2.3,3.89,3.89,0,0,0-.83.08c-1.16.22-2.49.75-2.83,1.82-.29.15-.43.58-.8.67a1.59,1.59,0,0,1-1.86-1.09A1.65,1.65,0,0,1,174.63,204.44Z" style="fill:#fafafa"></path><path d="M196.84,165.51a23.48,23.48,0,0,1-3.07,2.33,23.36,23.36,0,0,1-3.14,2.23,16.33,16.33,0,0,1,6.21-4.56Z" style="fill:#263238"></path><path d="M200,173.76a10,10,0,0,1-5.35,3.62,23.2,23.2,0,0,1,2.68-1.8A21.2,21.2,0,0,1,200,173.76Z" style="fill:#263238"></path><path d="M202.54,180a5.74,5.74,0,0,1-2,2.82,5.92,5.92,0,0,1-3.06,1.65c-.07-.14,1.32-.8,2.71-2S202.41,180,202.54,180Z" style="fill:#263238"></path></g><g id="freepik--Plant--inject-89"><path d="M435.71,442.37a2.89,2.89,0,0,0-.22-.52l-.69-1.47a38.1,38.1,0,0,1-2-5.92c-1.34-5.26-1.81-13.3.18-22.85a121.4,121.4,0,0,1,4.23-15.34c1.8-5.45,3.88-11.23,5.58-17.48a67.51,67.51,0,0,0,2.76-20.08c-.26-7.11-2.36-14.2-4.68-21.26s-4.69-14-5.41-20.94a31.9,31.9,0,0,1,3.84-19.33c3.06-5.64,6.91-10.47,9.8-15.47A53.7,53.7,0,0,0,455,266.85a55.5,55.5,0,0,0,.37-23,43.4,43.4,0,0,0-2.4-8.13,2.06,2.06,0,0,0,.14.54q.18.57.48,1.56a57.33,57.33,0,0,1,1.5,6.09,56.1,56.1,0,0,1-.6,22.86,53.6,53.6,0,0,1-5.91,14.68c-2.87,4.93-6.74,9.74-9.87,15.45a32.54,32.54,0,0,0-4,19.72c.72,7.07,3.12,14,5.42,21.1s4.4,14.07,4.66,21.05a67.21,67.21,0,0,1-2.69,19.89c-1.67,6.21-3.73,12-5.5,17.46a121.27,121.27,0,0,0-4.17,15.43c-1.94,9.62-1.39,17.74.06,23a33.81,33.81,0,0,0,2.18,5.91l.76,1.45A2.78,2.78,0,0,0,435.71,442.37Z" style="fill:#263238"></path><path d="M445.14,286.64S451,267.92,440.49,257a.65.65,0,0,0-1.11.32C438.82,260.37,438.12,269.79,445.14,286.64Z" style="fill:#DC9B9B"></path><path d="M441.63,263.2a17.14,17.14,0,0,0,.4,3.45c.38,2.38.83,5.17,1.33,8.26s.94,5.88,1.31,8.26a19.44,19.44,0,0,0,.62,3.41,14,14,0,0,0-.1-3.48c-.19-2.14-.57-5.08-1.1-8.31s-1.09-6.14-1.55-8.23A15.44,15.44,0,0,0,441.63,263.2Z" style="fill:#263238"></path><path d="M438.26,330.8s-3.58-19.29-18-24.06a.65.65,0,0,0-.83.8C420.39,310.54,424.18,319.19,438.26,330.8Z" style="fill:#DC9B9B"></path><path d="M424.2,311.72a17,17,0,0,0,2,2.87c1.46,1.92,3.16,4.18,5,6.67l5,6.68a20.47,20.47,0,0,0,2.15,2.74,14.08,14.08,0,0,0-1.72-3c-1.17-1.8-2.88-4.23-4.86-6.83s-3.84-4.92-5.22-6.56A14.72,14.72,0,0,0,424.2,311.72Z" style="fill:#263238"></path><path d="M442.16,379.18s2.17-19.49-10.23-28.25a.65.65,0,0,0-1,.53C430.94,354.6,432.05,364,442.16,379.18Z" style="fill:#DC9B9B"></path><path d="M434.24,356.84a17.11,17.11,0,0,0,1.05,3.31c.83,2.27,1.81,4.92,2.88,7.85s2,5.6,2.87,7.86a18.14,18.14,0,0,0,1.26,3.24,15,15,0,0,0-.77-3.4c-.6-2.06-1.53-4.88-2.67-7.95s-2.24-5.82-3.09-7.79A15,15,0,0,0,434.24,356.84Z" style="fill:#263238"></path><path d="M431.3,427.85s1.48-19.56-11.23-27.87a.65.65,0,0,0-1,.57C419.21,403.69,420.66,413,431.3,427.85Z" style="fill:#DC9B9B"></path><path d="M422.59,405.8a17.46,17.46,0,0,0,1.17,3.28l3.16,7.74c1.18,2.9,2.24,5.52,3.14,7.75a18.88,18.88,0,0,0,1.38,3.19,14.47,14.47,0,0,0-.89-3.37c-.67-2-1.7-4.82-2.95-7.85s-2.45-5.73-3.37-7.67A15.9,15.9,0,0,0,422.59,405.8Z" style="fill:#263238"></path><path d="M453.55,270.19s17.39-9.08,17.73-24.25a.64.64,0,0,0-1-.56C467.69,247.16,460.52,253.32,453.55,270.19Z" style="fill:#DC9B9B"></path><path d="M467.67,251.15a16.8,16.8,0,0,0-2.16,2.72c-1.42,1.95-3.07,4.25-4.9,6.78s-3.51,4.81-4.92,6.76a18.07,18.07,0,0,0-2,2.85,15.09,15.09,0,0,0,2.38-2.53c1.38-1.65,3.2-4,5.11-6.65s3.57-5.11,4.73-6.92A15.09,15.09,0,0,0,467.67,251.15Z" style="fill:#263238"></path><path d="M434.88,310.4s17.91-8,19.17-23.13a.65.65,0,0,0-1-.63C450.39,288.27,442.87,294,434.88,310.4Z" style="fill:#DC9B9B"></path><path d="M450.13,292.25a17.88,17.88,0,0,0-2.32,2.58l-5.31,6.47-5.32,6.45a18.33,18.33,0,0,0-2.15,2.73,15,15,0,0,0,2.54-2.39c1.47-1.56,3.43-3.79,5.5-6.32s3.88-4.89,5.14-6.62A15.64,15.64,0,0,0,450.13,292.25Z" style="fill:#263238"></path><path d="M445.19,355.25s12.29-15.28,6.53-29.33a.65.65,0,0,0-1.16-.1C448.91,328.49,444.81,337,445.19,355.25Z" style="fill:#DC9B9B"></path><path d="M450.5,332.15a16.66,16.66,0,0,0-.9,3.35c-.51,2.36-1.11,5.12-1.78,8.18s-1.28,5.81-1.8,8.16a19.62,19.62,0,0,0-.67,3.41,14.42,14.42,0,0,0,1.18-3.28c.6-2.06,1.32-4.94,2-8.14s1.23-6.11,1.57-8.23A15.77,15.77,0,0,0,450.5,332.15Z" style="fill:#263238"></path><path d="M433,408s17.77-8.31,18.78-23.46a.65.65,0,0,0-1-.6C448.14,385.64,440.71,391.47,433,408Z" style="fill:#DC9B9B"></path><path d="M448,389.62a17.16,17.16,0,0,0-2.28,2.62l-5.2,6.56-5.21,6.54a19,19,0,0,0-2.1,2.76,14.77,14.77,0,0,0,2.49-2.42c1.45-1.59,3.37-3.85,5.4-6.43s3.79-4.94,5-6.69A15.88,15.88,0,0,0,448,389.62Z" style="fill:#263238"></path><path d="M397.61,330.9a2.21,2.21,0,0,0,0,.44c0,.34,0,.75,0,1.25.05,1.18.13,2.77.21,4.76.23,4.18.55,10,.93,17v0c1.27,7.1,4.88,15,9.74,22.61,3.56,5.62,7.29,10.74,10.51,15.5a110.5,110.5,0,0,1,7.89,13,56,56,0,0,1,3.69,9.56c.31,1.17.54,2.09.68,2.71a4.13,4.13,0,0,0,.26,1,5.69,5.69,0,0,0-.12-1c-.09-.64-.28-1.57-.55-2.76a50.16,50.16,0,0,0-3.5-9.72,103.34,103.34,0,0,0-7.79-13.18c-3.19-4.79-6.91-9.92-10.45-15.51-4.83-7.61-8.43-15.35-9.74-22.34v0c-.49-7-.9-12.79-1.19-17-.16-2-.29-3.57-.38-4.74-.05-.5-.1-.91-.13-1.25A1.21,1.21,0,0,0,397.61,330.9Z" style="fill:#263238"></path><path d="M408.19,375.52s-7.52-18.12,1.95-30a.65.65,0,0,1,1.13.22C412.11,348.78,413.66,358.1,408.19,375.52Z" style="fill:#DC9B9B"></path><path d="M409.57,351.85a14.49,14.49,0,0,0-.6,3.43c-.27,2.13-.57,5.07-.8,8.34s-.34,6.23-.34,8.38a13.87,13.87,0,0,0,.21,3.47,19.72,19.72,0,0,0,.31-3.46c.16-2.4.34-5.22.55-8.34s.42-5.94.59-8.34A17.65,17.65,0,0,0,409.57,351.85Z" style="fill:#263238"></path><g style="opacity:0.30000000000000004"><path d="M408.19,375.52s-7.52-18.12,1.95-30a.65.65,0,0,1,1.13.22C412.11,348.78,413.66,358.1,408.19,375.52Z"></path></g><path d="M431.5,419.17s-6-18.67,4.37-29.73a.66.66,0,0,1,1.12.31C437.58,392.84,438.37,402.25,431.5,419.17Z" style="fill:#DC9B9B"></path><path d="M434.79,395.69a15.19,15.19,0,0,0-.87,3.37c-.44,2.1-1,5-1.47,8.25s-.85,6.18-1,8.32a14.7,14.7,0,0,0-.07,3.48,18.14,18.14,0,0,0,.59-3.42c.35-2.38.77-5.18,1.23-8.27s.9-5.89,1.26-8.27A17.68,17.68,0,0,0,434.79,395.69Z" style="fill:#263238"></path><g style="opacity:0.30000000000000004"><path d="M431.5,419.17s-6-18.67,4.37-29.73a.66.66,0,0,1,1.12.31C437.58,392.84,438.37,402.25,431.5,419.17Z"></path></g><path d="M398.61,353.38S382.54,342.13,384.16,327a.65.65,0,0,1,1.08-.43C387.57,328.72,393.88,335.74,398.61,353.38Z" style="fill:#DC9B9B"></path><g style="opacity:0.30000000000000004"><path d="M398.61,353.38S382.54,342.13,384.16,327a.65.65,0,0,1,1.08-.43C387.57,328.72,393.88,335.74,398.61,353.38Z"></path></g><path d="M387.07,332.67a15.9,15.9,0,0,0,1.33,3.21c.92,1.94,2.25,4.59,3.81,7.47s3.05,5.44,4.2,7.26a14.11,14.11,0,0,0,2,2.81,19.71,19.71,0,0,0-1.59-3.08c-1.16-2.11-2.51-4.6-4-7.34l-4-7.35A17.8,17.8,0,0,0,387.07,332.67Z" style="fill:#263238"></path><path d="M425,400.67s-19.38-3-24.57-17.29a.65.65,0,0,1,.78-.86C404.25,383.38,413,386.92,425,400.67Z" style="fill:#DC9B9B"></path><g style="opacity:0.30000000000000004"><path d="M425,400.67s-19.38-3-24.57-17.29a.65.65,0,0,1,.78-.86C404.25,383.38,413,386.92,425,400.67Z"></path></g><path d="M405.54,387.16a15.67,15.67,0,0,0,2.62,2.29c1.67,1.34,4,3.13,6.7,5s5.13,3.55,7,4.66a14.83,14.83,0,0,0,3.07,1.64,17.21,17.21,0,0,0-2.79-2.07l-6.83-4.82c-2.54-1.82-4.85-3.46-6.81-4.85A17.3,17.3,0,0,0,405.54,387.16Z" style="fill:#263238"></path><polygon points="447.96 436.33 442.4 472.8 420.2 472.76 412.72 436.33 447.96 436.33" style="fill:#455a64"></polygon><path d="M416,450.4s.06.06.19.14.31.2.58.33a8,8,0,0,0,2.48.74,9.25,9.25,0,0,0,4.08-.38,8.58,8.58,0,0,0,4.39-3.19,6.14,6.14,0,0,0,1-3.05,3.32,3.32,0,0,0-1.5-3.14,3.6,3.6,0,0,0-3.72.31,5.45,5.45,0,0,0-2.13,3.35,14.51,14.51,0,0,0-.28,4.12,13.63,13.63,0,0,0,.9,4.21,9.35,9.35,0,0,0,2.58,3.67,7.18,7.18,0,0,0,4.27,1.79,7.86,7.86,0,0,0,4.44-1.29,13.45,13.45,0,0,0,3.32-3,7.29,7.29,0,0,0,1.68-4,4.64,4.64,0,0,0-1.58-3.86,3.59,3.59,0,0,0-3.93-.24,4.23,4.23,0,0,0-2.27,3,5.69,5.69,0,0,0,2.81,5.77,7.85,7.85,0,0,0,5.36.78,12.21,12.21,0,0,0,3.82-1.5,19.27,19.27,0,0,0,2.13-1.44,4.56,4.56,0,0,0,.69-.59,8.11,8.11,0,0,0-.76.49c-.49.32-1.2.81-2.18,1.34a12.15,12.15,0,0,1-3.76,1.36,7.44,7.44,0,0,1-5.08-.81A5.24,5.24,0,0,1,431,450a3.67,3.67,0,0,1,2-2.59,3.07,3.07,0,0,1,3.35.2A4.12,4.12,0,0,1,437.7,451a6.68,6.68,0,0,1-1.57,3.67,12.68,12.68,0,0,1-3.16,2.85,7.3,7.3,0,0,1-4.1,1.2,6.6,6.6,0,0,1-3.91-1.64,8.65,8.65,0,0,1-2.41-3.43,13.25,13.25,0,0,1-.88-4,13.59,13.59,0,0,1,.25-3.95,4.88,4.88,0,0,1,1.87-3,3.1,3.1,0,0,1,3.18-.32,2.85,2.85,0,0,1,1.28,2.68,5.66,5.66,0,0,1-.92,2.83,8.27,8.27,0,0,1-4.13,3.11,9.3,9.3,0,0,1-3.95.47A10.5,10.5,0,0,1,416,450.4Z" style="fill:#263238"></path></g><g id="freepik--Floor--inject-89"><path d="M462.21,472.64c0,.15-95,.26-212.2.26s-212.22-.11-212.22-.26,95-.26,212.22-.26S462.21,472.5,462.21,472.64Z" style="fill:#263238"></path></g></svg>